/* XPM */
static char *f4cef58e05f943a7f1ea542ad5ed38cdvKkhkWqPLKM2nlOh[] = {
/* columns rows colors chars-per-pixel */
"64 64 256 2 ",
"   c #010101",
".  c #0A0202",
"X  c #030902",
"o  c #0B0903",
"O  c #03030B",
"+  c #0B060B",
"@  c #030A0B",
"#  c #0B0A0A",
"$  c #100605",
"%  c #010313",
"&  c #010A13",
"*  c #070518",
"=  c #130A16",
"-  c #0A141A",
";  c #10130E",
":  c #010C24",
">  c #030727",
",  c #140726",
"<  c #051827",
"1  c #171727",
"2  c #170D36",
"3  c #101936",
"4  c #271734",
"5  c #112536",
"6  c #2F2E34",
"7  c #372416",
"8  c #63393D",
"9  c #51473B",
"0  c #0A1A47",
"q  c #191949",
"w  c #0A1E51",
"e  c #191856",
"r  c #160D4D",
"t  c #241749",
"y  c #231758",
"u  c #2D114E",
"i  c #0A2549",
"p  c #192948",
"a  c #082659",
"s  c #1D2353",
"d  c #1B245B",
"f  c #152B5C",
"g  c #182957",
"h  c #1A3458",
"j  c #12344E",
"k  c #272648",
"l  c #252757",
"z  c #273559",
"x  c #34375B",
"c  c #2F2F4D",
"v  c #121574",
"b  c #271B68",
"n  c #301374",
"m  c #0D2A66",
"M  c #132B64",
"N  c #142C6C",
"B  c #1A2966",
"V  c #143364",
"C  c #1C3365",
"Z  c #14336B",
"A  c #1B326A",
"S  c #1B3B6C",
"D  c #193A68",
"F  c #0C2A76",
"G  c #182A75",
"H  c #0B3778",
"J  c #133473",
"K  c #1B3373",
"L  c #1D3C74",
"P  c #13327A",
"I  c #143B7D",
"U  c #1C3C7C",
"Y  c #173877",
"T  c #0A366A",
"R  c #2B2A6B",
"E  c #262A66",
"W  c #362A69",
"Q  c #253A64",
"!  c #2C326C",
"~  c #233A6C",
"^  c #273667",
"/  c #32336B",
"(  c #383767",
")  c #272976",
"_  c #352976",
"`  c #243375",
"'  c #243C73",
"]  c #2C3B73",
"[  c #243B7C",
"{  c #293579",
"}  c #343877",
"|  c #4B1659",
" . c #4E3450",
".. c #682957",
"X. c #68344D",
"o. c #491967",
"O. c #521370",
"+. c #641E72",
"@. c #453865",
"#. c #542C70",
"$. c #753579",
"%. c #662B6E",
"&. c #314A55",
"*. c #19426D",
"=. c #0C4579",
"-. c #19437A",
";. c #185878",
":. c #274469",
">. c #374767",
",. c #365569",
"<. c #22417C",
"1. c #284677",
"2. c #344578",
"3. c #265579",
"4. c #335474",
"5. c #3B6C70",
"6. c #135055",
"7. c #5B474A",
"8. c #47475B",
"9. c #4C4F51",
"0. c #684F4F",
"q. c #51655E",
"w. c #766C57",
"e. c #474766",
"r. c #444B78",
"t. c #465578",
"y. c #4D526C",
"u. c #6E5470",
"i. c #586978",
"p. c #4D686C",
"a. c #736E70",
"s. c #2F4129",
"d. c #875072",
"f. c #8B7178",
"g. c #E17765",
"h. c #698F6C",
"j. c #4D916B",
"k. c #988E7B",
"l. c #0E198F",
"z. c #2B1488",
"x. c #172985",
"c. c #0A3885",
"v. c #1C3D84",
"b. c #173889",
"n. c #193798",
"m. c #092B8C",
"M. c #242B85",
"N. c #283986",
"B. c #363885",
"V. c #273A96",
"C. c #353798",
"Z. c #342B90",
"A. c #1939A9",
"S. c #112DAD",
"D. c #2C35AE",
"F. c #0E17AA",
"G. c #593898",
"H. c #4D3694",
"J. c #5333A8",
"K. c #642B8A",
"L. c #0A4688",
"P. c #134382",
"I. c #1D4484",
"U. c #1C4B85",
"Y. c #1C448A",
"T. c #164889",
"R. c #1A5489",
"E. c #1A4697",
"W. c #1A5495",
"Q. c #074B94",
"!. c #234382",
"~. c #284888",
"^. c #364887",
"/. c #295487",
"(. c #37568A",
"). c #274997",
"_. c #334393",
"`. c #384A97",
"'. c #295597",
"]. c #395697",
"[. c #38699A",
"{. c #356891",
"}. c #1946A7",
"|. c #1B48B6",
" X c #1554A7",
".X c #2747A6",
"XX c #384BA6",
"oX c #2757A5",
"OX c #3957A6",
"+X c #294AB5",
"@X c #3C49B5",
"#X c #2A58B7",
"$X c #395BB4",
"%X c #176DAE",
"&X c #2C65AA",
"*X c #3767A6",
"=X c #3777A8",
"-X c #3468BA",
";X c #3A78BA",
":X c #2970B1",
">X c #1D658D",
",X c #484689",
"<X c #44588C",
"1X c #474896",
"2X c #475996",
"3X c #584E90",
"4X c #68508B",
"5X c #4D659D",
"6X c #576799",
"7X c #52708E",
"8X c #6B718E",
"9X c #4759A6",
"0X c #4559B8",
"qX c #4F4EAD",
"wX c #5662A6",
"eX c #4C66B6",
"rX c #5367B6",
"tX c #4976AB",
"yX c #7A77B3",
"uX c #2D39CC",
"iX c #1829CF",
"pX c #403ED0",
"aX c #1655CE",
"sX c #2A58C5",
"dX c #334FCD",
"fX c #1171CD",
"gX c #3A66D7",
"hX c #2E72CE",
"jX c #2F6FE7",
"kX c #4B54C9",
"lX c #4B70CF",
"zX c #6268E7",
"xX c #931BA1",
"cX c #9E6F9A",
"vX c #CD5E9A",
"bX c #D078C2",
"nX c #C31AA7",
"mX c #2F8AB5",
"MX c #558299",
"NX c #6C898E",
"BX c #4F97B5",
"VX c #6F8BB3",
"CX c #43A3B5",
"ZX c #3C90CE",
"AX c #2B99D6",
"SX c #4A8BD3",
"DX c #4AABCE",
"FX c #508FF1",
"GX c #6CB0FA",
"HX c #6A9DDD",
"JX c #32C0F3",
"KX c #6FD2F4",
"LX c #7DE9FE",
"PX c #888292",
"IX c #CCC68F",
"UX c #92BBD1",
/* pixels */
"                                    X         O O O O                       X X               X                                 ",
"                                                            X X O O O O O                                                       ",
"                                # X             o X X         .       . . . $ $ .         O O O                                 ",
"                                          X X X         O % % %                             O +                                 ",
"                                    X           & & < 3 p l z z h j p 5 < & % %       . .                                       ",
"                                # X       # 1 6 8.e.y.t.t.^.^.^.V._.`.`._.N.K M < : & O                                         ",
"                                      = 6 8.u.8Xa.a.u.y.r.] ` G G M.N._.`.^.^.1.-.V 0 > %   X o                                 ",
"                                  ; 6 9.u.u.u. .u.u.u.@.( / ` ` ( ( ( ( >.>.&.,.E.E.N.R q ,                                     ",
"                o   . . . . #   7  .4X4X%.+.%.$.$.%.@.^ C D ~ ] ^ / ( ( ( >.e.e.>./.R.L.b.U a :                                 ",
"                  ;   + .     7.d.u.K.+.o.| +.%.@.@.( ^ ^ ! ! } ! / ( ( ( @.e.e.>.3.U.c.c.N.' h - O   X #     O                 ",
"                @   X   ; $ 7.f.d.$.+.O.O.O.+.O.Q ^ ^ / / W W W R / W @.@.@.e.e.e.,.3.P.H I [ 1.h < O   .     #                 ",
"                O     # o a.cXd.%.O.O.O.O.#.#.o.Q ^ ! W W W E E ) _ } ( ( @.e.e.q.,.3.U.I F J I.R.*.i O     . .                 ",
"                . + ; o a.f.d...o.O.n n n W _ } ] ! W W W ! ~ S { { ] ] ] >.>.e.9.,.3./.I.P P Y.Q.R.:.5 O                       ",
"                .   ; a.f.u.| | n n z.n b R / ] / / W R ! ~ 1.-.U U U L ' ' 2.2.y.,.3.1.U P I Y.L.=.-.1.p %   X                 ",
"                X   0.f.a.c W b v v z.n _ ( ( ^ / ! R ! ^ ] 1.2.<.<.-.U L ' } } r.4.3.1.K G I Y.*.T I /.1.5 O                   ",
"                X q.k.0. .x B F v v v n W ( x z ] ] ~ ~ ~ ] } } !.!.!.<.[ { } B.~ 1.3.<.L K U I.:.Y H H =.h <                   ",
"@     $ .   1   s.h.a.x z C a Z l.l.l.x./ @.( _ E / / } } } { B.1.2.2.] ! } ] ] 1.1.[ L I -.=.=.Z L K N U 1.h :   o .   O &     ",
"      .       - a.a.8.k Q ~ m m m.l.l.x./ x ( _ ) ! ! ! } } { B.1.^.^.] ^ ^ ' ' ] } !.[ P I I.U.Z K K N L 1.*.a O       O O   . ",
"  #       @   9.NXq.c p Q ^ M m F x.l.M./ ( / _ ) ) E ! 2.} { } ' 2.(.^.[ [ !./.] 2.N.[ v.N.!.Y.N N Z C D 1.1.-.& O   .       X ",
"  X X     @ < NXi.&.c z l g f f N F G ) ! / ! ) ) ) ) { ^.} ] } 1.^.(.(.~.!./.'.^.~.N.v.).).!.P P G A C D *.-.R.i %   o     O   ",
"    . X   O p.NXe.z x ( s g Q f m N G ) R R ) ) G { { B.^.B.} ^.2X2X].].'.Y.b.b.'.'.'.W.W.E.v.F { B B ^ ~ L -.T.<.: O X         ",
"+   X +   - NX7Xr.z ^ ^ d E ^ g m M B R R ) G G ` B.N._.`.^.^.`.2X].`.'.).E.n.m.P.oX&XoXE.c.P P R E E ^ ' U P.P.'.i %           ",
"+   +   O &.NX5.r.^ l E E z z g V C E R ) ) K S { N.N._.`.`.^.`.2X(.~.).).).n.n.c.E.oX}.c.P G ` E R ! { N.!.I.-.).A :           ",
"    @   O i.MX{.] E l ! R s s z Z C R R ) ) ` S ] !.N._.XX`._.`.5X].`.'..XV.n.V.n.n.n.b.b.N.) R l ( } B.N.N.I.-.E.<.3   X     X ",
"%   . . < DX=X6XZ.M._ _ ) N f i V Z L -.<.<.' ` B.B.` N.9X9X`.9X6X9XoXQ.Q.E.C._ _ { N.N.v.' z l c W B._.V.V.V._.H.,Xk O         ",
"O X   . j DX=X<X{ E b ) v x.P K V V S *.*.S A A ` ` ` N.].9X9X9X`.XXkXpXuXD.C.1XC.C.C.V.M.) ) _ U.P.c.m.A.V.C.B.^.<X8.@   + X   ",
"  X   % >XJXmX<X( x  .W E M V h h V D S S C C f A A [ [ N.XXeXeXeX@XuXuXuXD.n.b.V.V.N.) R ) Z.Z.+XsXsXhXhXhXhX;X7XNXNX@   X + O ",
".   O > :XAXmX[.K.#.%.#.! g j j f V D D A N N M J N N.N.b.XXlXkXsX#XaXfXhXhX XE.Y.I ^ x x } B.C.uXdXjXjXfX%X%X%XMXMXVX-   X + O ",
".   @ > &XfX%X[.K.$.u.4X} N F P M M A A N N G P I P b.V.n.+XlXgXgXSXHXDXCXmX;X-X XE.<.2.^.`.XXD.aXaXaXfXhX;X=XtX[.].VXq - X     ",
". X X > `.%X:XtXw.w.w.w.&.a m P M M A N N G P b.v.b.b.)..X#XgXFXFXGXHXNX8X6XtX:XsX|..XXX0XkXdXdXuXsX|.}. XW.*XtX;X$XlXd &     O ",
"      , _ n.oX*Xj.j.h.h.&.5 p l h h C f M M J U U.U.~.'.&X:XZXGXFXlX2X,X3XwXtX&X.X.X)..X+XdXdXdXzXzXzXlX XQ.Q.%XtXtXrXE     o % ",
"+ X   , u v m.b.fXfXZXBX{.V e y h h h g g f Z -.3././.[.=X:XDXLXSX;X-XgXgX#X).U.(.~.<.Y P b.V.XXdXkXlXlXsX}.m.x.6.(.5X>.+   # % ",
"      , t y e l m H T.R.!.` B d h z Q A G G L 1.R.R.).OX$X:XDXKXKXmX=XtX*XOX.XA.^.XX^._.D.m p z._ } ,X,X,X2.<.-.).1.NX9.+ O O   ",
"      , t y e y e e m a a w g f Q Q Q h M N Y L } 2./.*X&XoXlXGXGXZX-X;X*X'.).b.{.}.T a m.z.o.F n W W W @.2.2.1.Y.1.8X6 + O +   ",
"      * t y e e u u q 0 0 w g h Q Q z h f N L -.@.r.4.3.{.*XlXGXFXgX#XoXY.I.~.-.;.C.rXBXqXz.v _ o.o.|  . . .8.>.v.~ i.6 .   X   ",
"      * q y e e u t q p s s h h C h z j f K U I.4.<Xt.e.6XHXFXFXgXgX+Xn.b.v.~./.^.H 4XbXHXhXC.n o.+.....X.8  .9.<.~ i.1         ",
"  X   % 2 e e e q 0 i a d l d g f h z z D <.~.~.3.<X7X7XVXHXlXaXlXlX0X.X)..XXXXXXXE E O.cXLXJXJ.o.#.....X.8 9 9 1.:.t.1         ",
"  X   O 2 e e e w w i w e y e d h z z ^ [ ~././.<X[.=XBXSX-X+XdXrXlXlX0X0X0XD.D.D.=.v.z.7XUXKXJXwX3X#...X.0.9 9 4.:.r.:   X   O ",
"  .   O 2 e r r e w w w q t s g h z C G b.Y./.3.].*X:X%X%X}..XkXwXrX0X0XkXqXC.C.J.x.F.H.g.IXCXAXSXrX,X#.X.0.7.9 ,.:.>.*   X   O ",
"  X   O 2 r r r r q q q q k p j p g f F m.n.U.3.L.&X#XA.A.dXsX|.eXeX@X@X0XqXZ.H.xXD.iXxXg.IXVXyXhXhX9Xr. . .7.0.,.:.>.%   X   O ",
"        * 2 y y r r 0 0 i s l y e N v.Y.T.c.I !.b.b.b.x.V..X}.}.$XeXwX2X1XqXqXG.5XJ.xXnXvXk.NXtXsXeXrX%XB.X.9 0./.4.5         O ",
"        % 2 y y q q q 0 0 w q q a N K I P P Y Y F N.M.M.V.V.}.+XOXwX6X2X`.`.1X,X<X3XxXvXcXPXtXgX.X].qX#X`...9.7.(.:.<         O ",
"        O , q y q q t q q 0 w w V ' ` B B K Y T m N.N.M.N.V.V.#X].2X6X6X2XOX].`.1X3XcXcXPX6X@XuXC.-.H.kXXX%.7.9.{.j &           ",
"        O * 2 t q t t t q e f T *.1./ b b ) J T B } B.M.M.M.V..X/.(.2X2XOXOX].<XJ.1X4X8X6X]._.N.,XT H.kX@X%.X.q.,.< O       X   ",
"          % , 4 t t t t e B Z -.:.:./ y y E N m R } B.) x.x.x.b.W.R./.^.`.XX1X,X3X3X<XOX#X.XN.( 1X*.G.kX@X%.0.p.c &   X     X   ",
"            * 1 t t t e B K U I.:.>.( l y l B m R } ) G x.x.c.b.W.W./.~._.`.1X3Xq.i.5X-X+XA.V.^.`.*.G.kX1X$.u.,.- O   X         ",
"            O = t t e B ` N.~.N.:.Q x x l l B M E ` G F b.n.Y.E.oX'.^.^.^.<X3X4Xi.7X*XoX}.n.).oX'.:.3XeX3Xd.p.j   O             ",
"O     X       + t q e G ~.).).V.z z z z l e e e d ` P x.n.E.'.&X`.^.2.2.(.<Xi.i.tXoXQ.c.=.;.R.W.W.] 3XtX3Xd.,.:   #     X X     ",
"                % 1 l V.dXuXuXD.Q ] _ l 4 4 e v d ^ L T P.'.'.U.~.~.~.^.(.].].'.E.L.P.U.R.R.R.>X'.U wX3X4X8X< @                 ",
"                  1 b M..X$XD.S._.` s k k y e e e E K J I W.'.R.N.N.U [ !.I.I.P.Y.Y.).U.P.=.R.R.U ~.6XyX4Xc & X                 ",
"                X O r N.OXn.l.S.uXN.l k l b y q q d A J P P.T.R.Y.I.v.v.v.v.I I !.~.I.I H P.R.W.Y 5X6X8X8.O @                   ",
"                X     k `.A.l.x.F.D.^.l s l l t t e d B J J I P.T.Y.Y.Y.Y.Y.Y.Y.' S J Y P.T.T.U.(.VX7X8.=   ;                   ",
"                  X   O f XXC.G l.S.D.N.Q k l b l q q d B M N J H I I I I U v.P.C V Y /.U.H Y !.6X8X&.-     o                   ",
"                  # % O & 5 } qXC.l.F.D.~.h e b l q q s l d f M m N Z N Z Z J J *.L -.U.=.Y (.tX7Xc 1     o                     ",
"                  . = +     2 3XG.Z.l.S.A.b.K E l l l k k l s s M M B B A A D S -.U.P.=.-.(.7X7Xc &     X X   O                 ",
"                > O . . + * * = J.qXC.F.F.D._.z d ^ x k k k l l d d E ^ ^ ~ :.1.H P.L.T.[.tX4.< O         X O O                 ",
"                                O 4 r.2X.XS.iXaX`.~.[ A h z c c l l E ] N.!.b.b.c.E.*XtXt.c =                                   ",
"                                = O % 0 ~.-X#X|.A.A.A.n.n.n.b.b.).v.P F F H P.T.tX*X(.:.<                                       ",
"                                .     % : i S /.gXgXgXsXsX|.|.A.}.}.}.oX&X*X[.[.:.5 &   @ o X                                   ",
"                                . . X     O & : 0 a m Y ~.'.*X*XoXoX'./.1.j 3 :                                                 ",
"                                o .     . X     X X @ & & & : : : : : * * % O O . X X X       O                                 ",
"                                    + +     . o . .       O % % X         . . . +       # = * O                                 ",
"                                +         + .   . . . . O O O O       . . X       + ; #                                         ",
"                                    X         X     X X         O O O     X X X &         X                                     "
};
