/* XPM */
static char *_1e56190823a437ee671c9e0108300ffG5IG5nIZXmlBS596[] = {
/* columns rows colors chars-per-pixel */
"64 64 240 2 ",
"   c None",
".  c #010001",
"X  c #080503",
"o  c #130000",
"O  c #000115",
"+  c #121018",
"@  c #2C0E0F",
"#  c #050529",
"$  c #1B1F33",
"%  c #0D1032",
"&  c #252935",
"*  c #353030",
"=  c #5C0506",
"-  c #551311",
";  c #780505",
":  c #6D1213",
">  c #700410",
",  c #44383A",
"<  c #6F262D",
"1  c #461124",
"2  c #78763C",
"3  c #131252",
"4  c #2F344D",
"5  c #00016B",
"6  c #02027D",
"7  c #000176",
"8  c #141774",
"9  c #0C0E6E",
"0  c #292D6B",
"q  c #3A117D",
"w  c #713840",
"e  c #5D326C",
"r  c #3F4157",
"t  c #3C4375",
"y  c #4F5153",
"u  c #706C52",
"i  c #585467",
"p  c #45496F",
"a  c #5B6163",
"s  c #6A6A73",
"d  c #7A6476",
"f  c #6D706E",
"g  c #704C4E",
"h  c #850708",
"j  c #970C0D",
"k  c #BA0102",
"l  c #B41416",
"z  c #A80D0D",
"x  c #972B2A",
"c  c #973138",
"v  c #A3292D",
"b  c #A7383A",
"n  c #B23637",
"m  c #AD2A35",
"M  c #C50102",
"N  c #CE0101",
"B  c #CA090B",
"V  c #D30000",
"C  c #DC0000",
"Z  c #D70D0E",
"A  c #D91315",
"S  c #C41616",
"D  c #E40101",
"F  c #EC0102",
"G  c #E5060A",
"H  c #F2070B",
"J  c #E9161A",
"K  c #F31319",
"L  c #ED0C13",
"P  c #F41A22",
"I  c #EB1A24",
"U  c #D42A2C",
"Y  c #EA272C",
"T  c #F03138",
"R  c #857B2B",
"E  c #B54B4D",
"W  c #B56367",
"Q  c #AC6F75",
"!  c #82725F",
"~  c #C94D4C",
"^  c #E24C4D",
"/  c #E6565A",
"(  c #C4777A",
")  c #D67072",
"_  c #EA6C72",
"`  c #E96357",
"'  c #B59E08",
"]  c #958C2E",
"[  c #B3AB36",
"{  c #B6AF04",
"}  c #C4AE02",
"|  c #CAB705",
" . c #D5BE03",
".. c #D9C705",
"X. c #DBD20A",
"o. c #E5D200",
"O. c #E6D908",
"+. c #E3D811",
"@. c #EEE612",
"#. c #CDCA2F",
"$. c #E3DE2B",
"%. c #EDE725",
"&. c #908E48",
"*. c #838366",
"=. c #D2CF54",
"-. c #DDDA62",
";. c #030483",
":. c #060689",
">. c #161987",
",. c #020396",
"<. c #152F94",
"1. c #25289D",
"2. c #252B8A",
"3. c #0000A4",
"4. c #0101AC",
"5. c #080FA7",
"6. c #0001B4",
"7. c #0202BB",
"8. c #070DB8",
"9. c #0B17B9",
"0. c #1313AB",
"q. c #1226B6",
"w. c #1132BD",
"e. c #2F33B2",
"r. c #361CB2",
"t. c #1340B7",
"y. c #3840A6",
"u. c #3948BB",
"i. c #344597",
"p. c #50528B",
"a. c #5A6D94",
"s. c #767887",
"d. c #686C90",
"f. c #5254AD",
"g. c #7A7FAD",
"h. c #526CAD",
"j. c #0001C4",
"k. c #040BC5",
"l. c #0001CC",
"z. c #060BCB",
"x. c #0112CD",
"c. c #0818C5",
"v. c #0001D4",
"b. c #030BD4",
"n. c #0001DB",
"m. c #010ADB",
"M. c #0C0ED7",
"N. c #0014D4",
"B. c #0014DC",
"V. c #001CDC",
"C. c #071AD6",
"Z. c #1315D7",
"A. c #122CD1",
"S. c #303BCC",
"D. c #0002E3",
"F. c #0209E8",
"G. c #0013E4",
"H. c #0114EB",
"J. c #001AEA",
"K. c #0718E3",
"L. c #020DF0",
"P. c #001DF1",
"I. c #1418E5",
"U. c #0022EE",
"Y. c #052CEE",
"T. c #0825E4",
"R. c #0933EC",
"E. c #183BE8",
"W. c #002AF2",
"Q. c #0524F1",
"!. c #0232F3",
"~. c #063BF3",
"^. c #0B3AF4",
"/. c #1430EA",
"(. c #0943F6",
"). c #1343F3",
"_. c #1C4CF4",
"`. c #1849F3",
"'. c #1D55F6",
"]. c #1C5DF8",
"[. c #1747E5",
"{. c #2756F4",
"}. c #2F4AE4",
"|. c #3C61EF",
" X c #2C67F6",
".X c #3A64F6",
"XX c #1246CC",
"oX c #484EC7",
"OX c #5464D4",
"+X c #5170F1",
"@X c #A67D84",
"#X c #81738C",
"$X c #D07E82",
"%X c #7D8188",
"&X c #5E80AD",
"*X c #758BA7",
"=X c #7D8AB5",
"-X c #7D88DC",
";X c #5280FA",
":X c #7E9BFA",
">X c #6A8AFA",
",X c #86868C",
"<X c #8A8D95",
"1X c #92959B",
"2X c #9B878F",
"3X c #AC8C96",
"4X c #AF888D",
"5X c #959AA2",
"6X c #898BAC",
"7X c #B699A7",
"8X c #9EA3AA",
"9X c #A4A3AB",
"0X c #A8ABB7",
"qX c #ADB1BA",
"wX c #B2B6BE",
"eX c #AFB1AE",
"rX c #E6979A",
"tX c #E88788",
"yX c #D59FA4",
"uX c #EC9FA0",
"iX c #DBA2A7",
"pX c #E8A2A3",
"aX c #CC8F94",
"sX c #C2C4A8",
"dX c #9DAEC0",
"fX c #B9BBC4",
"gX c #B6BAC9",
"hX c #ABB3CC",
"jX c #93AAF9",
"kX c #9AA4E2",
"lX c #BDC9FA",
"zX c #C9CBD2",
"xX c #CED1DA",
"cX c #D5D6DD",
"vX c #CBCDCD",
"bX c #D6D9E1",
"nX c #D3DBFB",
"mX c #DFE0E6",
"MX c #E5E4E9",
"NX c #E9EBF0",
/* pixels */
"                                                                                                                                ",
"                                                                                                                                ",
"                                                                                                                                ",
"                                                h.).                         X{._.`.E.E.E.                                      ",
"                                                [ u.~.'.           X'.).^.Y.Y.U.J.J.G.G.m.b.x.A.                                ",
"                                                +.&.E.~.`.    _.^.W.U.J.J.J.J.G.G.G.B.m.v.j.7.9.                                ",
"                                                +.X.s.{.R.R.Y.U.J.J.J.J.G.K.G.G.G.B.B.b.l.7.8.                                  ",
"                                                $.O.[ }.U.J.J.J.G.G.C.y.u p.K.G.G.B.B.N.k.7.                                    ",
"                                                  +.a.T.J.J.J.J.B.e.! ' | u C.G.G.B.N.x.k.9.                                    ",
"                                                  &XR.U.J.J.J.J.q.y R ' } i C.B.B.B.N.x.8.                                      ",
"                                                  (.W.U.U.U.Y.R.A.w.<.y ' p C.V.V.N.N.x.9.                                      ",
"                                                ].!.W.Y.W.!._..X|.[.XX<.2 1.C.V.V.N.N.x.q.                                      ",
"                                                (.!.!.!.~.`.+XjXjX|.[.t.p 9.C.V.B.N.x.c.                                        ",
"                                               X(.~.).`._..X:XnXlX+X[.A.0.k.v.v.v.l.k.c.                                        ",
"                                              ].~.)._.{.{.;XjXnXjX.XT.b.l.v.v.l.l.l.j.c.                                        ",
"                                              '.(.`.E.^.). X>X:X.XY.F.v.l.j.j.l.l.l.j.9.                                        ",
"                                              _.Q.Q.J.P.W.~._._.!.J.v.j.7.6.6.j.l.l.j.9.                                        ",
"                                              Q.L.L.H.P.W.!.!.W.J.v.4.7 3 6 7.l.l.l.j.9.                                        ",
"                                              H.F.F.F.H.P.P.J.m.6.5 # . . 6 n.n.v.l.j.c.                                        ",
"                                              K.D.D.n.n.n.v.0.q # . . . O 8.G.n.v.v.l.k.                                        ",
"                                                r.7.6.3.6 e m b o . . . 9 T.G.n.n.v.l.k.A.                                      ",
"                                              MX7Xr # O o ~ ` x o . . % A.J.D.n.n.v.v.l.c.                                      ",
"                                              NXcXzX,X& X - x @ . . % q.K.D.D.n.n.v.v.l.k.c.                                    ",
"                                                zXzXMXzX,Xy * $ $ 8 c.m.n.n.v.v.v.v.l.l.j.6.9.                                  ",
"                                                bXwXqXzXMXmXcXfXgXkX0.7.j.l.j.j.j.j.j.7.4.,.,.5.                                ",
"                                              NXxXg.p.d.1X0XqXfXfX6X>.,.3.3.3.3.3.3.3.,.,.;.:.                                  ",
"                                                OXz.3.;.8 0 r s p.3 5 7 6 ;.;.6 ;.6 6 ;.:.                                      ",
"                                              *Xa.A.m.j.6.>.6XgXgXd.:.4.                                                        ",
"                                              #...y E.}.C.f.gXxXxXqXe.j.                                                        ",
"                                              @.{ + S.+XI.f.%Xa y & i.                                                          ",
"                                          u i -.#.& b.L.D.8.0 9 ;.9 a.gX          }.                                            ",
"                                        cX,X% ] O.u n.D.n.l.4.j.j.7.    fX0X  -X+XA.                                            ",
"                                      eX,X* . 3 p.q.n.v.v.7.7.j.7.        d.f.hXoXz.                                            ",
"                                    9X9Xy + X * 8.j.l.l.7.4.7.8.            A.OXM.                                              ",
"                                  bX8X<X,Xs *     3.3.:.>.2.                K.T.z.                                              ",
"                                    8X1X1X<X      2.>.8 i s                 T.m.z.                                              ",
"                                        5X        dXdX  *X*X              /.K.b.                                                ",
"                                                    cX  qX8X              T.B.z.                                                ",
"                                                0 p 9XfXwX0X              q.k.                                                  ",
"                                                  ;.4 s.s.1X        zX-.$.R u                                                   ",
"                                                  M.5.0.4 f       bXsX$.%.o. .                                                  ",
"                                                  I.F.H.>.t       <X=.%.+.o.....                                                ",
"                                                    F.D.b.e.=X  fX*.X.....o...                                                  ",
"                                                    I.D.M.-X5X  %X&.| o.o.o.}                                                   ",
"                                                      M.n.S.e.6X4X3Xf ] }  .|                                                   ",
"                                                Y T   1.l.v.7.f.b 4X9X<Xu R                                                     ",
"                                            P L F G < $ :.v.l.:.d @X,X,X1X                                                      ",
"                                        K H F F F D > & p.Z.v.0.d 4X9X4X                                                        ",
"                                    P H F F F F P T h y qXu.l.oXs 2XQ U                                                         ",
"                                    H F F F F F K J j , f g.1.p.#XW v M A                                                       ",
"                                  T F D D D D D D C k : g s 4 $ s 7X3Xc M Z                                                     ",
"                                  tXtX_ / ^ ^ ^ / ^ Z N B l 1 4 qXgX5X! j A Z                                                   ",
"                                    v E W ( ( $X) U N N V V k w xXwXqXs.: B N                                                   ",
"                                          h h z N V V V C C C l 2X1X5Xs = k B                                                   ",
"                                              D C V C C C D D N < a s , = l )                                                   ",
"                                            G D C C C D D D C N j   y @ ; m Q                                                   ",
"                                            F D D G Y I G C V M k       ; ;                                                     ",
"                                          J F D J / _ J C N M S ~ E                                                             ",
"                                          tXY L J Y J A U ~ $XyX4Xb                                                             ",
"                                          ) pXuXrXrXrXiXiXaXW x h                                                               ",
"                                          z l n n b b v j h h                                                                   ",
"                                                                                                                                ",
"                                                                                                                                ",
"                                                                                                                                "
};
