/* XPM */
static char *b5b473a962194418c0b52ae5896b1bcfE3TYUMMBAdNORXE9[] = {
/* columns rows colors chars-per-pixel */
"64 64 240 2 ",
"   c None",
".  c #010001",
"X  c #080503",
"o  c #130000",
"O  c #000115",
"+  c #121018",
"@  c #2C0E0F",
"#  c #050529",
"$  c #1B1F33",
"%  c #0D1032",
"&  c #252935",
"*  c #353030",
"=  c #5C0506",
"-  c #551311",
";  c #780505",
":  c #6D1213",
">  c #700410",
",  c #44383A",
"<  c #6F262D",
"1  c #461124",
"2  c #78763C",
"3  c #131252",
"4  c #2F344D",
"5  c #00016B",
"6  c #02027D",
"7  c #000176",
"8  c #141774",
"9  c #0C0E6E",
"0  c #292D6B",
"q  c #3A117D",
"w  c #713840",
"e  c #5D326C",
"r  c #3F4157",
"t  c #3C4375",
"y  c #4F5153",
"u  c #706C52",
"i  c #585467",
"p  c #45496F",
"a  c #5B6163",
"s  c #6A6A73",
"d  c #7A6476",
"f  c #6D706E",
"g  c #704C4E",
"h  c #850708",
"j  c #970C0D",
"k  c #BA0102",
"l  c #B41416",
"z  c #A80D0D",
"x  c #972B2A",
"c  c #973138",
"v  c #A3292D",
"b  c #A7383A",
"n  c #B23637",
"m  c #AD2A35",
"M  c #C50102",
"N  c #CE0101",
"B  c #CA090B",
"V  c #D30000",
"C  c #DC0000",
"Z  c #D70D0E",
"A  c #D91315",
"S  c #C41616",
"D  c #E40101",
"F  c #EC0102",
"G  c #E5060A",
"H  c #F2070B",
"J  c #E9161A",
"K  c #F31319",
"L  c #ED0C13",
"P  c #F41A22",
"I  c #EB1A24",
"U  c #D42A2C",
"Y  c #EA272C",
"T  c #F03138",
"R  c #857B2B",
"E  c #B54B4D",
"W  c #B56367",
"Q  c #AC6F75",
"!  c #82725F",
"~  c #C94D4C",
"^  c #E24C4D",
"/  c #E6565A",
"(  c #C4777A",
")  c #D67072",
"_  c #EA6C72",
"`  c #E96357",
"'  c #B59E08",
"]  c #958C2E",
"[  c #B3AB36",
"{  c #B6AF04",
"}  c #C4AE02",
"|  c #CAB705",
" . c #D5BE03",
".. c #D9C705",
"X. c #DBD20A",
"o. c #E5D200",
"O. c #E6D908",
"+. c #E3D811",
"@. c #EEE612",
"#. c #CDCA2F",
"$. c #E3DE2B",
"%. c #EDE725",
"&. c #908E48",
"*. c #838366",
"=. c #D2CF54",
"-. c #DDDA62",
";. c #030483",
":. c #060689",
">. c #161987",
",. c #020396",
"<. c #152F94",
"1. c #25289D",
"2. c #252B8A",
"3. c #0000A4",
"4. c #0101AC",
"5. c #080FA7",
"6. c #0001B4",
"7. c #0202BB",
"8. c #070DB8",
"9. c #0B17B9",
"0. c #1313AB",
"q. c #1226B6",
"w. c #1132BD",
"e. c #2F33B2",
"r. c #361CB2",
"t. c #1340B7",
"y. c #3840A6",
"u. c #3948BB",
"i. c #344597",
"p. c #50528B",
"a. c #5A6D94",
"s. c #767887",
"d. c #686C90",
"f. c #5254AD",
"g. c #7A7FAD",
"h. c #526CAD",
"j. c #0001C4",
"k. c #040BC5",
"l. c #0001CC",
"z. c #060BCB",
"x. c #0112CD",
"c. c #0818C5",
"v. c #0001D4",
"b. c #030BD4",
"n. c #0001DB",
"m. c #010ADB",
"M. c #0C0ED7",
"N. c #0014D4",
"B. c #0014DC",
"V. c #001CDC",
"C. c #071AD6",
"Z. c #1315D7",
"A. c #122CD1",
"S. c #303BCC",
"D. c #0002E3",
"F. c #0209E8",
"G. c #0013E4",
"H. c #0114EB",
"J. c #001AEA",
"K. c #0718E3",
"L. c #020DF0",
"P. c #001DF1",
"I. c #1418E5",
"U. c #0022EE",
"Y. c #052CEE",
"T. c #0825E4",
"R. c #0933EC",
"E. c #183BE8",
"W. c #002AF2",
"Q. c #0524F1",
"!. c #0232F3",
"~. c #063BF3",
"^. c #0B3AF4",
"/. c #1430EA",
"(. c #0943F6",
"). c #1343F3",
"_. c #1C4CF4",
"`. c #1849F3",
"'. c #1D55F6",
"]. c #1C5DF8",
"[. c #1747E5",
"{. c #2756F4",
"}. c #2F4AE4",
"|. c #3C61EF",
" X c #2C67F6",
".X c #3A64F6",
"XX c #1246CC",
"oX c #484EC7",
"OX c #5464D4",
"+X c #5170F1",
"@X c #A67D84",
"#X c #81738C",
"$X c #D07E82",
"%X c #7D8188",
"&X c #5E80AD",
"*X c #758BA7",
"=X c #7D8AB5",
"-X c #7D88DC",
";X c #5280FA",
":X c #7E9BFA",
">X c #6A8AFA",
",X c #86868C",
"<X c #8A8D95",
"1X c #92959B",
"2X c #9B878F",
"3X c #AC8C96",
"4X c #AF888D",
"5X c #959AA2",
"6X c #898BAC",
"7X c #B699A7",
"8X c #9EA3AA",
"9X c #A4A3AB",
"0X c #A8ABB7",
"qX c #ADB1BA",
"wX c #B2B6BE",
"eX c #AFB1AE",
"rX c #E6979A",
"tX c #E88788",
"yX c #D59FA4",
"uX c #EC9FA0",
"iX c #DBA2A7",
"pX c #E8A2A3",
"aX c #CC8F94",
"sX c #C2C4A8",
"dX c #9DAEC0",
"fX c #B9BBC4",
"gX c #B6BAC9",
"hX c #ABB3CC",
"jX c #93AAF9",
"kX c #9AA4E2",
"lX c #BDC9FA",
"zX c #C9CBD2",
"xX c #CED1DA",
"cX c #D5D6DD",
"vX c #CBCDCD",
"bX c #D6D9E1",
"nX c #D3DBFB",
"mX c #DFE0E6",
"MX c #E5E4E9",
"NX c #E9EBF0",
/* pixels */
"                                                                                                                                ",
"                                                                                                                                ",
"                                                                                                                                ",
"                                      E.E.E.`._.{. X                        ).h.                                                ",
"                                A.x.b.m.m.G.J.J.U.Y.Y.^.).'. X          '.~.u.[                                                 ",
"                                9.7.j.v.m.B.G.G.G.J.J.J.J.U.W.^._.    `.~.E.&.+.                                                ",
"                                  8.7.l.b.B.B.G.G.G.K.G.J.J.J.J.U.Y.R.R.{.s.X.+.                                                ",
"                                    7.j.N.N.B.G.G.K.p.u y.C.G.G.J.J.J.T.}.[ O.$.                                                ",
"                                    9.k.x.N.B.G.G.C.u | ' ! e.B.J.J.H.J.T.a.+.                                                  ",
"                                      8.x.N.N.B.B.C.i } ' R y q.J.J.J.J.U.R.&X                                                  ",
"                                      9.x.N.N.V.V.C.p ' y <.w.A.R.W.U.U.U.W.(.                                                  ",
"                                      q.x.N.V.V.V.C.1.2 <.XX[.|..X_.!.W.W.W.!.].                                                ",
"                                        c.x.N.N.V.C.q.p t.[.|.jXjX+X`.~.!.!.!.(.                                                ",
"                                        c.j.l.v.v.b.z.0.A.[.+XlXnX:X.X_.`.).~.(. X                                              ",
"                                        9.j.l.l.l.v.v.l.b.T..XjXnXjX;X{.{._.).~.].                                              ",
"                                        9.j.l.l.l.j.j.l.v.F.Y..X:X>X X).^.E.`.(.'.                                              ",
"                                        9.j.l.l.j.6.6.7.j.v.J.!._._.^.W.P.J.Q.Q._.                                              ",
"                                        9.j.l.l.l.7.6 3 7 4.v.J.W.!.!.W.P.H.L.L.Q.                                              ",
"                                        c.j.l.v.n.n.6 . . # 5 6.m.J.J.J.H.F.F.F.H.                                              ",
"                                        k.l.v.v.n.G.8.O . . . # q 0.l.n.n.n.D.D.K.                                              ",
"                                      A.k.l.v.n.n.G.T.9 . . . o b m e 6 3.6.j.r.                                                ",
"                                      c.l.v.v.n.n.D.J.A.% . . o x ` ~ o O # r 7XMX                                              ",
"                                    c.k.l.v.v.n.n.D.D.K.q.% . . @ x - X & ,XzXcXNX                                              ",
"                                  9.6.j.l.l.v.v.v.v.n.n.m.c.8 $ $ * y ,XzXMXzXzX                                                ",
"                                5.,.,.4.7.j.j.j.j.j.j.j.7.0.kXgXfXcXmXMXzXqXwXbX                                                ",
"                                  :.;.,.,.3.3.3.3.3.3.3.,.>.6XfXfXqX0X1Xd.p.g.xXNX                                              ",
"                                      :.;.6 6 ;.;.;.;.6 7 5 3 p.s r 0 8 ;.3.k.OX                                                ",
"                                                        4.:.d.gXgX6X>.6.j.m.A.a.*X                                              ",
"                                                        j.e.qXxXxXgXf.C.}.E.y ..#.                                              ",
"                                                          i.& y a %Xf.T.+XS.+ { @.                                              ",
"                                            }.          gXa.8 ;.9 0 8.D.L.b.& #.-.i u                                           ",
"                                            A.+X-X  0XfX    7.j.j.6.l.n.D.n.u O.] % ,XcX                                        ",
"                                            z.oXhXf.d.        7.j.7.7.v.n.n.q.p.3 . * ,XeX                                      ",
"                                              M.OXA.            8.7.4.7.l.l.l.8.* X + y 9X9X                                    ",
"                                              z.T.K.                2.>.:.3.3.    * s ,X<X9XbX                                  ",
"                                              z.m.T.                s i 8 >.2.      <X1X1X8X                                    ",
"                                                b.K./.              *X*X  dXdX        5X                                        ",
"                                                z.B.T.              8XqX  cX                                                    ",
"                                                  k.q.              0XwXfX9Xp 0                                                 ",
"                                                  u R $.-.zX        1Xs.s.4 ;.                                                  ",
"                                                   .o.%.$.sXcX      f 4 0.5.M.                                                  ",
"                                                ....o.+.%.=.<X      t >.H.F.I.                                                  ",
"                                                  ..o.....X.*.fX  =Xe.b.D.F.                                                    ",
"                                                  } o.o.o.| &.%X  5X=XM.D.I.                                                    ",
"                                                  |  .} ] f 3X4X6Xy.S.n.M.                                                      ",
"                                                    R u <X9X4Xb f.7.v.l.1.  T Y                                                 ",
"                                                      1X,X,X@Xd :.l.v.:.% < G F L P                                             ",
"                                                        4X9X4Xd 0.v.Z.p.& > D F F F H K                                         ",
"                                                        U Q 2Xs oXj.u.qXy h T P F F F F H P                                     ",
"                                                      A M v W #Xp.1.g.f , j J L F F F F F H                                     ",
"                                                    Z M c 3X7Xs $ 4 s g : k C D D D D D D F T                                   ",
"                                                  Z A j ! 5XgXqX4 1 l B N Z ^ / ^ ^ ^ / _ tXtX                                  ",
"                                                  N B : s.qXwXxXw k V V N N U ) $X( ( W E v                                     ",
"                                                  B k = s 5X1X2Xl D C V V V V N z h h                                           ",
"                                                  ) l = , s a < N D D D V V V V D                                               ",
"                                                  Q m ; @ y   j N C D D D C C C D G                                             ",
"                                                    ; ;       k M V C G I Y G D D F                                             ",
"                                                            E ~ S M N V J _ / J D F J                                           ",
"                                                            b 4XyX$X~ U A J Y J L Y tX                                          ",
"                                                              h x W aXiXiXrXrXrXuXpX)                                           ",
"                                                                  h h j x b b n n l z                                           ",
"                                                                                                                                ",
"                                                                                                                                ",
"                                                                                                                                "
};
