/* XPM */
static char *_3f46877ad924b89fb778724d7d4886bcbhMTef0NXImPgYU[] = {
/* columns rows colors chars-per-pixel */
"64 64 228 2 ",
"   c None",
".  c #373738",
"X  c #746926",
"o  c #3A3245",
"O  c #785B47",
"+  c #675779",
"@  c #736D78",
"#  c #4A494C",
"$  c #88061B",
"%  c #92041F",
"&  c #B91A1C",
"*  c #931731",
"=  c #A7072C",
"-  c #BB0536",
";  c #A7183B",
":  c #AF0734",
">  c #982A3F",
",  c #C6033D",
"<  c #B97C29",
"1  c #B91848",
"2  c #BF0A42",
"3  c #97314B",
"4  c #B63559",
"5  c #B92555",
"6  c #951A7A",
"7  c #9A2969",
"8  c #B42F6E",
"9  c #BB1072",
"0  c #D30A4D",
"q  c #D7064B",
"w  c #C61349",
"e  c #D60C51",
"r  c #DC1C5C",
"t  c #CE104C",
"y  c #CB345C",
"u  c #CC2E54",
"i  c #CB0569",
"p  c #D6366A",
"a  c #DE3A74",
"s  c #8D4859",
"d  c #AA435A",
"f  c #95596C",
"g  c #A74B66",
"h  c #B8446A",
"j  c #AA596F",
"k  c #877B6B",
"l  c #8E6D77",
"z  c #A6697D",
"x  c #B4697F",
"c  c #A27550",
"v  c #CA4A5C",
"b  c #C94A74",
"n  c #D34775",
"m  c #CD5D7C",
"M  c #CB607C",
"N  c #BD8235",
"B  c #CD8E3C",
"V  c #9C854E",
"C  c #AD8E50",
"Z  c #99937B",
"A  c #B68677",
"S  c #D2994C",
"D  c #D59D55",
"F  c #C68D4E",
"G  c #C69373",
"H  c #571594",
"J  c #551686",
"K  c #7E1780",
"L  c #5E2595",
"P  c #5D2D8A",
"I  c #6A2B92",
"U  c #5B0FA4",
"Y  c #6A1BB1",
"T  c #6526A4",
"R  c #7232A7",
"E  c #7328B9",
"W  c #722FAF",
"Q  c #6C4791",
"!  c #766781",
"~  c #7F7883",
"^  c #7344AB",
"/  c #7A47BA",
"(  c #7349A6",
")  c #7D2BC5",
"_  c #7F34C7",
"`  c #7C47C0",
"'  c #971886",
"]  c #B11489",
"[  c #8532BE",
"{  c #8B2AAF",
"}  c #A23EB4",
"|  c #B34982",
" . c #B9439A",
".. c #887B93",
"X. c #8E7A8D",
"o. c #B87797",
"O. c #AC6A8A",
"+. c #9A7DAD",
"@. c #8E72B1",
"#. c #C56381",
"$. c #C97998",
"%. c #CF6D91",
"&. c #8A36D3",
"*. c #8331CC",
"=. c #8649C5",
"-. c #8C58CA",
";. c #9458DB",
":. c #9848D4",
">. c #9862D9",
",. c #9973C4",
"<. c #AB7CD9",
"1. c #985BE1",
"2. c #9D65E2",
"3. c #A365EB",
"4. c #A66CE8",
"5. c #AC74ED",
"6. c #A671E3",
"7. c #AD71F3",
"8. c #B279F3",
"9. c #A96BF0",
"0. c #968796",
"q. c #95949D",
"w. c #918F8D",
"e. c #BA8A9A",
"r. c #B58A88",
"t. c #BBB185",
"y. c #9586A6",
"u. c #9996A5",
"i. c #9B86B3",
"p. c #BD8DA3",
"a. c #A19CAE",
"s. c #BB95AA",
"d. c #A38DB8",
"f. c #A695B8",
"g. c #B786B6",
"h. c #A7A7AA",
"j. c #ABABBB",
"k. c #A8A7B3",
"l. c #B2ACBC",
"z. c #B3B3BC",
"x. c #B7B6B9",
"c. c #B4AAB6",
"v. c #C68F90",
"b. c #C49AAE",
"n. c #D083A1",
"m. c #E697B4",
"M. c #CAA5B8",
"N. c #C0B0B7",
"B. c #E3A0B4",
"V. c #DDD8AE",
"C. c #E8E2A2",
"Z. c #A585C5",
"A. c #AD93C9",
"S. c #B79ACA",
"D. c #AE86D9",
"F. c #B799D8",
"G. c #B091CD",
"H. c #BCA4C9",
"J. c #AEB2C1",
"K. c #B4B4C2",
"L. c #BBBCC4",
"P. c #BDBDCA",
"I. c #B9B6C3",
"U. c #BBA4D6",
"Y. c #B88AEB",
"T. c #BC94E6",
"R. c #B682F1",
"E. c #AE81E4",
"W. c #C99BCA",
"Q. c #CEA8C8",
"!. c #C5BDCC",
"~. c #C3A7DA",
"^. c #C7B4DB",
"/. c #D6AFCD",
"(. c #C99DF4",
"). c #C09BE5",
"_. c #C5ABE3",
"`. c #C9AEE3",
"'. c #C9A8EA",
"]. c #CBB3E4",
"[. c #CEB4E9",
"{. c #D2B5EC",
"}. c #D5BBEC",
"|. c #D6BBE8",
" X c #D6BAF0",
".X c #D9BCF3",
"XX c #D6B3F3",
"oX c #D4AFF3",
"OX c #C4C4CD",
"+X c #C6C5C7",
"@X c #C4C4D2",
"#X c #CBCBD4",
"$X c #CCCCD9",
"%X c #CAC5D4",
"&X c #D5CDDB",
"*X c #D4D4D5",
"=X c #D3D3DD",
"-X c #DBDBDC",
";X c #DAD4DD",
":X c #D4D3D2",
">X c #E8CAD9",
",X c #E1D8D2",
"<X c #DCC3ED",
"1X c #D6D6E2",
"2X c #DBDBE4",
"3X c #DDDDE8",
"4X c #DAD5E6",
"5X c #DDC3F3",
"6X c #E1C7EE",
"7X c #E9D8E1",
"8X c #E1C6F4",
"9X c #E5CBF4",
"0X c #E8CEF4",
"qX c #E9D2F5",
"wX c #E8D3F5",
"eX c #F3DCE7",
"rX c #DEE0ED",
"tX c #E2E2E5",
"yX c #E3E4EB",
"uX c #EAEAEC",
"iX c #EBE7EC",
"pX c #ECECF2",
"aX c #E6E7F1",
"sX c #F2F1F5",
"dX c #F5F5F9",
"fX c #FBFBFD",
"gX c #F7F5FA",
"hX c #F6EFEF",
/* pixels */
"                                                                                                                                ",
"                                                        3.>.        3.2.                                                        ",
"                                                        7.9.'.      3.Y.}.                                                      ",
"                                                        R.7.oX5X{.  3.(.5X}.  2.                                                ",
"                                                          5.(.9X5X_.6.oX8X}.D.;.>.                                              ",
"                                                            Y.9X8X`.F..X8X[._.T.-.                                              ",
"                                                      2.      <X|.r.s..X8X'.U.`.F.                                              ",
"                                                      5.8.XX}.].M.< F Q..X_.G.F.U.                                              ",
"                                                        R.(.8X5Xe.N S G W.%.o.G.A.                                              ",
"                                                          Y. X8Xr.B D S v.u & d +.                                              ",
"                                                               XA < S D v.g.O.s f                                               ",
"                                                               Xr.C v.Q.[..X.X].~.          <X^.                                ",
"                                                              5X].{..X.X5X5X5X.X}.[.[..X}.M.G p.                                ",
"                                                            9X9X9X9X8X8X8X5X5X5X X{.[.~.A B F                                   ",
"                                                      wXwX0X9X9X0X0X9X9X8X8X5X5X.X X].H.F B e.                                  ",
"                                                  wXwXwX0X6X|.0X0XwX0X9X9X8X5X5X}.~.`.~.G A                                     ",
"                                                9X9X0X0X0X9XH.H.9XwXwX0X9X8X5X5X~.v W.~.S.                                      ",
"                                                0XwX0X0X6X<X<Xy.! f.<X9X8X8X5X5XW.4 S.U.S.                                      ",
"                                                  8X9X9X6X~.f.! # @ @ H.8X8X5X5X{.S.U.S.d.                                      ",
"                                                  {..X8X8X8X}...x.dX+X~ H.8X5X.X{.~.F.A.i.                                      ",
"                                                    '.{..X.X.Xd.*XfXC.C...`..X{._.F.A.i.i.                                      ",
"                                                      F.).'.'.Z.+XhXC V.+Xi. X[.U.A.+.+ o                                       ",
"                                                        Z.D.F.^.I.V.X ,XuXy.'.~.A.d.q..                                         ",
"                                                          @.Z.4XpX:Xt.uXtX0.F.Z.0.+Xh.                                          ",
"                                                            @.f.$XpXpXyX;Xk.d.k Z N.                                            ",
"                                            pX2X1XpX            y.K.$X3XaX3Xw.w.h.u.                                            ",
"                                        yXyXdXfXpXpX1X          O k u.j.I.K.z.J.J.                                              ",
"                                        sXsXuXtXpXpX3XU.=.R R W I c V k k u.j.                                                  ",
"                                    fXfXdXdXyX+X2X1X2X4X=.H L T ) :.o.c s                                                       ",
"                                    dXsXpXfXuXh.+X2X=X=X      L Y &.:.:.W Y                                                     ",
"                                  fXpXpXyXuX+Xh.h.=X=X=X      L Y *.&._ T U E                                                   ",
"                                    ;X3X=X2Xk.+XOXOXpX      P H E &.) E   H Y                                                   ",
"                          8.5.5.E.F.K.z.z.I.k.I.P.OXtXyX  Q J J { [ E       T E ^ a.z.z.                                        ",
"                    5.7.9.3.3.3.T.'.].^.                ( P K 7 | | 6       T E =.f.K.P.                                        ",
"                6.>.1.1.;.;.=.-.T.<X5X5X}.            =.T 6 7 c.*X+XO.        R ,.$XP.OX                                        ",
"                  -.=.` / ^ ^     ].|.<X5X}.[.      =.E ' 7 0.*X+X#X*X;X      u.l.OXP.#X-X                                      ",
"                6.-.` / ^               |.<X5X5X{.>.[ ] 8 X.x.#Xy.a.+XtXsXuXOXP.2X=X=X#XtXuXsX                                  ",
"                    / ^                     |.].<.[ ] i   c.*X^.T Q y.x.=XsXsX2X2X2X#Xz.P.tXdXpX                                ",
"                                                } ]       :XtXU.T +.P.z.k.OXyXdX3XK.q.u.OXP.+XuX                                ",
"                                               .9         -XyXU.i.j.@XOXk.q.j.$X2X    K.$X=Xz.OX                                ",
"                                              8           -XyX!.P.=X%Xk.h.K.@XK.K.      L.I.                                    ",
"                                                        -X-XyXI.L.yX$XK.K.P.K.j.                                                ",
"                                                        -X-XyX#XpXfXyX@XI.j.k.                                                  ",
"                                                        -X3X3X1XiXpX1X$XP.K.                                                    ",
"                                                      -X-XyXs.z e.;X&X#XI.l.                                                    ",
"                                                      2XyXyXf $ g ;X$.s.p.                                                      ",
"                                                q.z.  tXdX;Xl * > x ; 1 4 g                                                     ",
"                                                K.@XOXtXfXOX  f $ % = 4 n.%X                                                    ",
"                                                1XyX2XyX2X%X  0.3 j b.&XrX1X@X                                                  ",
"                                              #XyX3X3X=X$X1X$XK.l.2XrXyXyX2X!.                                                  ",
"                                              3XpX&X7XyX1X3X1X@Xk.=XaXaXyX/.b 4                                                 ",
"                                              ;X%.n /.sX=X2X3X    P.&XM.#.t , 5                                                 ",
"                                              n 0 q %.>Xn.2X1X      z ; = - , 2 4                                               ",
"                                            %.p 0 q r p 1 !.          z 3 ; = - :                                               ",
"                                            b u 0 e r a b                 l s 3 3                                               ",
"                                          $.y y n m.>XiX4X                                                                      ",
"                                          b.M B.hXfXgXsXyX#X                                                                    ",
"                                            7XfXfXfXgXdXyX#X                                                                    ",
"                                            yXfXfXfXeXm.%.o.                                                                    ",
"                                            +XfXsXm.p 0 q w h                                                                   ",
"                                            I.7Xm w t e 0 q y #.                                                                ",
"                                              p.4 1 - w t 0 0 4                                                                 ",
"                                                l.s.e.o.o.$.$.o.                                                                ",
"                                                                                                                                "
};
