/* XPM */
static char *_939051253de4ed8bb0f6e20021277ecf8RtGkNA9Roya3Tu[] = {
/* columns rows colors chars-per-pixel */
"64 64 234 2 ",
"   c None",
".  c #030303",
"X  c #790204",
"o  c #6E1228",
"O  c #612C31",
"+  c #121C5A",
"@  c #0A165A",
"#  c #0C1B68",
"$  c #0B1E78",
"%  c #152477",
"&  c #16236A",
"*  c #37247A",
"=  c #2B3475",
"-  c #232F7E",
";  c #3C385B",
":  c #571750",
">  c #451D64",
",  c #4B256A",
"<  c #554F72",
"1  c #7E7478",
"2  c #706871",
"3  c #63525E",
"4  c #8A0202",
"5  c #9A0000",
"6  c #920000",
"7  c #861515",
"8  c #91111A",
"9  c #A30000",
"0  c #AC0000",
"q  c #AA0B0B",
"w  c #B20000",
"e  c #BB0303",
"r  c #B70F0F",
"t  c #A71717",
"y  c #BD1413",
"u  c #B1171D",
"i  c #932D2F",
"p  c #B62727",
"a  c #BA3434",
"s  c #A13435",
"d  c #C20707",
"f  c #CC1313",
"g  c #C81817",
"h  c #D21212",
"j  c #D31C1C",
"k  c #D83D12",
"l  c #C52727",
"z  c #C43737",
"x  c #D05615",
"c  c #801C43",
"v  c #9A3E40",
"b  c #975354",
"n  c #A95557",
"m  c #B64D4E",
"M  c #8F5F67",
"N  c #8F6E78",
"B  c #A97977",
"V  c #B87576",
"C  c #A86E68",
"Z  c #996E48",
"A  c #CF5151",
"S  c #E27F7F",
"D  c #D47862",
"F  c #618D74",
"G  c #FAA909",
"H  c #FDB503",
"J  c #FAB317",
"K  c #F7A913",
"L  c #F4B525",
"P  c #ED9120",
"I  c #FEC10A",
"U  c #AE8F73",
"Y  c #BB8459",
"T  c #CB987B",
"R  c #D1956E",
"E  c #E7A56D",
"W  c #E7B47E",
"Q  c #FDBB75",
"!  c #F9B777",
"~  c #FAB36E",
"^  c #FCBA5A",
"/  c #FFC37D",
"(  c #FFC77D",
")  c #FBC64C",
"_  c #0C2288",
"`  c #142688",
"'  c #0E2697",
"]  c #142793",
"[  c #182B9A",
"{  c #1E3295",
"}  c #21329C",
"|  c #283596",
" . c #353B98",
".. c #282B86",
"X. c #0E29A5",
"o. c #0D2AAC",
"O. c #142BA4",
"+. c #132CAC",
"@. c #192EA9",
"#. c #1C32AC",
"$. c #1D30A3",
"%. c #0E2CB5",
"&. c #0E2EBB",
"*. c #132EB3",
"=. c #112FBA",
"-. c #1A2FB0",
";. c #1630B6",
":. c #1B33B5",
">. c #1431BD",
",. c #1B34BC",
"<. c #1E39BE",
"1. c #0F30BF",
"2. c #2738A8",
"3. c #323DA9",
"4. c #2236B3",
"5. c #273CB8",
"6. c #324697",
"7. c #3A46A6",
"8. c #3646B7",
"9. c #2E41B1",
"0. c #5A5798",
"q. c #51548E",
"w. c #79768B",
"e. c #77678E",
"r. c #4455B4",
"t. c #4951AF",
"y. c #5A65B5",
"u. c #5760A7",
"i. c #6D71AF",
"p. c #635496",
"a. c #102FC0",
"s. c #0F31C3",
"d. c #0E33CB",
"f. c #1432C3",
"g. c #1A35C3",
"h. c #1B38C3",
"j. c #1234CE",
"k. c #1333CA",
"l. c #1A36CB",
"z. c #1B38CB",
"x. c #1536D2",
"c. c #1537D6",
"v. c #1235D2",
"b. c #1638D7",
"n. c #1A39D4",
"m. c #1639D9",
"M. c #193ADA",
"N. c #1B3BDB",
"B. c #1937D0",
"V. c #0C2EC0",
"C. c #213BCD",
"Z. c #2339C6",
"A. c #233DD3",
"S. c #283ED1",
"D. c #2A41D6",
"F. c #2740D5",
"G. c #3148C1",
"H. c #4559CA",
"J. c #5567D3",
"K. c #727CC8",
"L. c #8D788F",
"P. c #8578A2",
"I. c #C17E80",
"U. c #7884DE",
"Y. c #8B8589",
"T. c #968489",
"R. c #978C95",
"E. c #9D9396",
"W. c #8C8392",
"Q. c #AA8B8A",
"!. c #A69899",
"~. c #B69696",
"^. c #B78C8E",
"/. c #BEA28D",
"(. c #9696B9",
"). c #8D8AAB",
"_. c #AAA4AB",
"`. c #B4A9AD",
"'. c #ABA8B6",
"]. c #B8B3B9",
"[. c #B8ACB5",
"{. c #91B096",
"}. c #D09185",
"|. c #E19191",
" X c #DCB386",
".X c #CEAE8D",
"XX c #EBB983",
"oX c #CAA8AB",
"OX c #C5BBBA",
"+X c #D5B5AF",
"@X c #9ECDA3",
"#X c #FAC880",
"$X c #FAD78C",
"%X c #F2CA95",
"&X c #FFE892",
"*X c #E4C9AE",
"=X c #8D93C9",
"-X c #8C8FC9",
";X c #A09FC7",
":X c #A7A6C7",
">X c #B9B7CB",
",X c #B8B6D7",
"<X c #A6ABD8",
"1X c #C4BDC2",
"2X c #BFC3DB",
"3X c #CEC9CD",
"4X c #C9C3C8",
"5X c #D5CACC",
"6X c #CBC8D5",
"7X c #D6CED5",
"8X c #D3D1D5",
"9X c #DBD1D4",
"0X c #DDD5DA",
"qX c #D9D7DB",
"wX c #E2DADD",
"eX c #E6D6D7",
"rX c #EBCFD0",
"tX c #E4DEE2",
"yX c #EADFE5",
"uX c #ECE2E4",
"iX c #EEE5EA",
"pX c #E9E5E6",
"aX c #F2E7E9",
"sX c #F4EAEC",
"dX c #FAECEC",
"fX c #F1E4E6",
"gX c #EAE7F3",
"hX c #FAEFF1",
"jX c #F1EDF0",
"kX c #FCF3F4",
"lX c #FFF7FA",
"zX c #FFFCFD",
"xX c #F4F1F4",
"cX c #DCD8E3",
/* pixels */
"                                                                                                                                ",
"                                              N.M.M.b.c.x.l.l.g.                                                                ",
"                                        N.M.M.b.x.j.k.f.f.f.,.                                                                  ",
"                                    N.M.M.c.j.k.f.>.=.=.;.:.                                                                    ",
"                                N.M.M.x.j.f.1.&.%.*.+.-.:.                                                                      ",
"                              M.M.c.j.f.&.%.o.o.+.;.g.l.n.N.N.N.N.N.N.                                                          ",
"                          N.M.b.x.k.s.%.o.X.+.f.B.M.M.m.m.b.c.c.c.c.b.m.m.M.M.                                                  ",
"                        M.M.c.l.f.&.o.X.o.f.b.m.m.c.c.v.v.v.j.j.j.j.j.j.j.v.x.x.x.                                              ",
"                      M.M.x.j.s.&.o.X.>.b.m.c.c.v.v.j.j.j.k.k.k.k.k.k.k.k.l.l.l.h.h.                                            ",
"                    M.M.x.j.s.&.o.=.B.M.b.v.v.v.d.j.k.k.k.k.f.f.k.f.k.f.g.h.h.,.                                                ",
"                C.M.b.x.j.k.f.f.l.b.b.x.v.j.d.d.k.k.k.f.k.k.k.k.f.f.g.,.,.,.                                                    ",
"              0.r.c.x.j.j.x.b.b.b.x.j.j.d.d.d.k.k.f.f.k.f.f.f.f.,.;.;.:.                                                        ",
"            p.T y.k.f.f.k.l.l.l.l.k.k.d.d.k.k.f.f.g.f.f.f.>.>.;.;.#.                                                            ",
"          t.T Q y.,.=.=.f.g.f.k.f.k.d.d.f.f.f.g.g.f.>.>.>.;.-.#.2.                                                              ",
"          L.Q / i.,.>.f.>.>.f.f.f.s.s.f.f.k.g.f.f.>.>.=.-.$.2.4.;.                                                              ",
"    l.l.5.T Q / L.,.;.>.=.=.>.f.s.s.f.f.k.g.f.>.>.=.-.@.} } [ O.*.>.f.l.j.                                                      ",
"    l.k.t.E Q Q ^.,.;.=.&.&.&.s.s.f.f.f.g.>.>.=.=.+.} | ` _ ' ' X.+.=.>.H.U.J.F.                                                ",
"    k.l.8.R ~ ~ }.5.=.=.&.&.s.s.f.f.f.f.f.>.=.*.O.| - $ $ _ _ ' [ O.5.=XyXlXgX2X                                                ",
"    l.n.g.7.e.B T 9.=.>.&.s.f.f.f.f.f.f.>.=.+.[ ..& # # $ _ ` ] [ 3.:XsXlXzXzXzXlX                                              ",
"    B.A.C.=.=.:.3.:.=.>.>.f.f.f.f.f.f.>.>.+.{ = + @ # % % ` ] ] } =XaXlXzXzXzXzXzXzX                                            ",
"    n.D.S.g.>.Z.Z.>.=.>.f.f.f.f.k.f.g.>.;.[ = + + % ` ] O.+.9.r.y.7XhXlXzXzXzXzXzXzXxX                                          ",
"    A.D.S.g.>.g.h.f.s.f.f.f.f.f.k.k.g.f.>.O.` ` ] X.o.o.o.t.6XxXgXuXdXlXzXzXzXzXzXzXxX                                          ",
"    A.D.S.g.f.f.f.f.s.f.f.f.f.f.k.k.g.f.>.=.%.=.%.%.5.=X<X6XeXaXzXlXiXkXzXzXzXzXzXzXzXlX                                        ",
"  A.D.D.S.z.f.f.s.s.f.f.f.f.f.f.k.g.g.g.f.f.>.>.>.*.i.iXzXzXlXfXsXzXsXuXlXzXlXlXkXuXtXiX                                        ",
"  A.D.D.A.B.k.<.<.a.f.k.k.k.f.f.k.f.g.g.g.g.>.>.;.+.i.OXaXzXzXlXuXhXkXeXsXkXhXsXwX].`.0X                                        ",
"  A.D.D.A.>.r.:X,XK.h.f.f.k.f.f.f.f.f.f.g.,.,.;.+.| N U +XkXlXlXdXfXsX9XuXaXaXiX9X5X7X                                          ",
"  C.D.A.f.2.'.iXkXsX-Xg.f.f.f.f.f.f.f.f.>.>.;.2.e..X#X( W eXhXkXdXaXtX>XwXuXuXiX9XOXwX                                          ",
"  C.S.C.%.u.9XhXzXlXiXJ.a.f.>.>.f.>.>.>.>.>.3.~.&X&X$X XT OXaXsXaXiX8X(.].3X0XtXuXwXwX                                          ",
"    S.z.%.i.yXkXzXzXlX,Xg.>.>.>.>.>.>.>.&.;.!.&X%XW.q.| ).OXuXuX6X>X4X]._._.1X7X0X0X0X                                          ",
"    C.g.%.y.pXkXlXzXzXiXH.&.=.&.&.=.=.&.&.u.$X.X7.o.o.*.8.(.,X>Xi.(.].  _.'.].4X3X3X                                            ",
"    h.g.%.r.cXxXlXlXlXkXK.&.&.&.&.&.=.&.3..X%Xt.*.:.5.5.4.2.2.                                                                  ",
"      g.>.#.:XjXkXkXkXdX-X2.7.:.%.=.=.2.!.$Xe.2.2.2.#.;.2.}                                                                     ",
"        >.%.6.{.pXsXwX*X.X XXX}.0.2.} e.$XQ.{ [ O.+.+.4.                                                                        ",
"          -.{ F @X9X+XXX#X( / ! R < { q.W. .O.+.+.+.-.4.                                                                        ",
"                U /.W ( / ! ! E Y < $.;.%.*.-.-.-.*.*.4.                                                                        ",
"              Z E ! / / ! ~ E R    .:.g.=.>.>.>.>.;.=.;.8.        2 L.                                                          ",
"        . . .   ! ! ! ! E E       0.5.f.s.>.>.>.>.>.=.>.5.    3 2 1 Y.R.                                                        ",
"        . .                         E.8.f.V.&.=.>.>.>.>.Z. .O O 3 1 Y.E.E.                                                      ",
"                                    XX X~.P.u.9.=.=.>.>.h.| o 7 7 i M R.!.                                                      ",
"                                    = 3 B U C B 7.&.>.>.,.#.* > * * , M E.!.                                                    ",
"                                  [ ' _ ` % # ; q.:.>.>.;.] ] .., c u p T.!.                                                    ",
"                                5.+.` % % % & < !.0.>.=.>...o 8 q q q y n E.!.                `.].                              ",
"                                  ,.*.O.] ` % _.9X!.7.a.f.>.> X 4 6 5 9 u B !.              E.Q.V V ^.`.                        ",
"                                    5.>.*.o.| 3XiX4X).8.f.f.f.> X 4 6 5 9 v E.E.        1 b a g h h j A ^.                      ",
"                                          #.t.wXaXeX1X(.G.f.f.f.> X 6 6 5 t T.R.        s y f f f h h h l V `.                  ",
"                                            '.tXfXwX7X5X:XG.f.f.g.: 4 i n ~.`.Y.      i t r y f f f f f h j m /.                ",
"                                            4XtXuXwX9X0X7X).,.f.f.,.p.E.`.[.`.Y.1     V m m a y g f f f f f k L I               ",
"                                              tXwX0X9X0X0X_.0.h.f.f.z.8.y.i.).w.2 W._.uXkXsXuX|.l g f f f k K I K H             ",
"                                              qX8X8X8XqX8X'._.K.h.f.f.f.k.k.h.5.3.6.q.7XzXlXlXzX|.g f f f D J J W P H           ",
"                                                            1X4X-XG.,.a.f.f.f.f.=.o.` :XlXzXlXlXkXA f j S dX%XG ) XXK H         ",
"                                                              6X8X>X=Xy.3.-.>.&.*.O._ (.lXzXlXkXlX}.y |.dXlXlX/ H L H J         ",
"                                                                4XoXI.m 8 o : , 6.{ % :XlXlXdXsXkXoXV yXhXlXlXdX^ H G x Q.      ",
"                                                                  t 0 0 9 5 6 7 W.w.w.qXdXsXuXiXaX5X5XiXdXkXlXlXrXP k y C       ",
"                                                                    9 0 0 9 5 6 C ].3XiXaXuXtXuXuX4X9XuXsXdXhXrXA g y f a ~.    ",
"                                                                      9 0 9 9 5 i 1XtXpXtX0XwXtX7X3X0XtXiXiX5Xz d f g g g V     ",
"                                                                        9 0 0 0 i R.8X0X  8XqXqX3X8X0XwXtX+Xz e e d f g f m     ",
"                                                                          9 0 0 b Y.              6X8XqXoXp w w w w e f f l Q.  ",
"                                                                              q M                     oXp w w w w w w e f g B   ",
"                                                                                                          0 0 0 0 0 w w e d n   ",
"                                                                                                            9 0 0 0 0 w w w n   ",
"                                                                                                              9 0 0 0 0 w w n   ",
"                                                                                                                  0 0 0 0 q M   ",
"                                                                                                                    9 q q s     ",
"                                                                                                                                "
};
