/* XPM */
static char *_4427d7b715f416198c78188e06b93aaZfqB1vE5dHiH01OD[] = {
/* columns rows colors chars-per-pixel */
"64 64 237 2 ",
"   c None",
".  c #050404",
"X  c #161214",
"o  c #302827",
"O  c #281523",
"+  c #6E3B18",
"@  c #523134",
"#  c #752015",
"$  c #774D30",
"%  c #6A4E2D",
"&  c #05094F",
"*  c #2D3355",
"=  c #0B1873",
"-  c #172276",
";  c #30326D",
":  c #473C67",
">  c #3D4A6E",
",  c #544E52",
"<  c #705452",
"1  c #555070",
"2  c #6C576D",
"3  c #74727B",
"4  c #6F6971",
"5  c #7A6258",
"6  c #950807",
"7  c #8F120F",
"8  c #AB0805",
"9  c #B6110C",
"0  c #B82117",
"q  c #B4302A",
"w  c #8F1F22",
"e  c #C71E16",
"r  c #C7140D",
"t  c #D6241D",
"y  c #C6241A",
"u  c #C92E27",
"i  c #DD2B25",
"p  c #DB2A26",
"a  c #D8342B",
"s  c #D83835",
"d  c #D33031",
"f  c #E12C25",
"g  c #E12E29",
"h  c #E5332B",
"j  c #E6362C",
"k  c #E93C33",
"l  c #E53B35",
"z  c #8E552C",
"x  c #A65928",
"c  c #986534",
"v  c #AB6528",
"b  c #B97639",
"n  c #AD6C31",
"m  c #936017",
"M  c #D94636",
"N  c #EA423C",
"B  c #E6433C",
"V  c #C07C3B",
"C  c #D53B45",
"Z  c #B8504B",
"A  c #906E50",
"S  c #AD784A",
"D  c #8D7671",
"F  c #AF787B",
"G  c #9E5E58",
"H  c #CF4E52",
"J  c #E84944",
"K  c #E7534D",
"L  c #EA5855",
"P  c #C97149",
"I  c #E6615E",
"U  c #CE716E",
"Y  c #E96764",
"T  c #E87A79",
"R  c #EB706D",
"E  c #C15E6D",
"W  c #C0803E",
"Q  c #B58A56",
"!  c #B78A55",
"~  c #BA9665",
"^  c #B18F6D",
"/  c #96876F",
"(  c #C5894A",
")  c #C99658",
"_  c #CA9154",
"`  c #C89A65",
"'  c #CDA46B",
"]  c #D7AA6B",
"[  c #D4AC77",
"{  c #DBB57A",
"}  c #CFA875",
"|  c #E2BD7E",
" . c #D3A35F",
".. c #091D8A",
"X. c #071D94",
"o. c #0D218C",
"O. c #142789",
"+. c #0E2493",
"@. c #0A249B",
"#. c #142A98",
"$. c #1D3498",
"%. c #2B3990",
"&. c #0D2AA5",
"*. c #0C2DAB",
"=. c #0827A4",
"-. c #112EA8",
";. c #1536A9",
":. c #0D33B4",
">. c #0E37BC",
",. c #133AB7",
"<. c #0B2DB1",
"1. c #243BA1",
"2. c #384992",
"3. c #1944B9",
"4. c #2644AB",
"5. c #3752AB",
"6. c #49518C",
"7. c #596499",
"8. c #787988",
"9. c #697195",
"0. c #4457A8",
"q. c #5167AD",
"w. c #6D7AAE",
"e. c #0E3AC4",
"r. c #103DC1",
"t. c #1242C5",
"y. c #1245CA",
"u. c #144ACC",
"i. c #194BC8",
"p. c #154ED1",
"a. c #1752D4",
"s. c #1955D5",
"d. c #1B5CDB",
"f. c #1A57D8",
"g. c #164CCB",
"h. c #2857C8",
"j. c #2555CD",
"k. c #1E61DE",
"l. c #2263DC",
"z. c #2A69DC",
"x. c #3B72D9",
"c. c #3668CE",
"v. c #1E64E1",
"b. c #236BE4",
"n. c #2469E1",
"m. c #2B74E6",
"M. c #2D7AEA",
"N. c #2974E9",
"B. c #327CEB",
"V. c #357BE7",
"C. c #5371C8",
"Z. c #987982",
"A. c #7C8393",
"S. c #7C87AC",
"D. c #3482EE",
"F. c #3B84EE",
"G. c #3D88EF",
"H. c #3D8BF1",
"J. c #3686F0",
"K. c #3F91F4",
"L. c #5682D5",
"P. c #728ACE",
"I. c #4487EB",
"U. c #438DF1",
"Y. c #498EF1",
"T. c #4491F3",
"R. c #4A92F2",
"E. c #5493ED",
"W. c #6997EA",
"Q. c #898897",
"!. c #96959C",
"~. c #8F8C91",
"^. c #AA9191",
"/. c #BAA591",
"(. c #8C93A5",
"). c #9999A6",
"_. c #8C94B6",
"`. c #A49EA6",
"'. c #B49CA4",
"]. c #9CA5B6",
"[. c #9DA1AD",
"{. c #A6A6AD",
"}. c #A8ABB6",
"|. c #AFB0B6",
" X c #B3B4BB",
".X c #B7B6BB",
"XX c #B5AEAC",
"oX c #D08F92",
"OX c #EC908F",
"+X c #C6A888",
"@X c #DBB885",
"#X c #CAB092",
"$X c #E1BE83",
"%X c #CEB2AE",
"&X c #F1B0B0",
"*X c #DEC393",
"=X c #E4C58B",
"-X c #E5C488",
";X c #E4C897",
":X c #D7C9B4",
">X c #E8D1AA",
",X c #8998C6",
"<X c #97A6D3",
"1X c #ADB4C3",
"2X c #BBBDC4",
"3X c #B5BAC7",
"4X c #A7B2CE",
"5X c #96B2E5",
"6X c #A7B7E0",
"7X c #CCBDC2",
"8X c #BDC2CB",
"9X c #BBC4DA",
"0X c #B5C3E5",
"qX c #C3C5CB",
"wX c #CACACE",
"eX c #C4C5CA",
"rX c #D1CAC5",
"tX c #C5C9D2",
"yX c #CCCDD3",
"uX c #C5CBDA",
"iX c #CED1D7",
"pX c #D2D2D6",
"aX c #D4D5DB",
"sX c #D6D8DE",
"dX c #D9DADE",
"fX c #DCD6D6",
"gX c #D7CFD0",
"hX c #DBDDE2",
"jX c #D5DAE3",
"kX c #C9D0E7",
"lX c #DEE1E6",
"zX c #DDE1EB",
"xX c #E1E2E6",
"cX c #E3E5E9",
"vX c #E9EAED",
"bX c #EAEDF1",
"nX c #F0F0F1",
/* pixels */
"                                                                                                                                ",
"                                                            H.H.H.H.J.J.D.D.                                                    ",
"                                                T.K.H.H.H.H.J.J.D.D.D.D.J.D.B.m.N.N.N.                                          ",
"                                          R.T.K.H.H.H.H.J.J.D.M.D.J.J.V.c.2.2.3.a.n.b.b.b.b.                                    ",
"                                    E.R.T.T.K.H.H.H.H.J.D.B.B.J.F.z.5.1 $ z c 1 y.p.f.f.f.f.f.s.a.                              ",
"          c.x.U.U.H.J.M.N.      E.R.R.T.T.T.T.T.U.U.H.J.D.D.J.m.5., z c S S Q 4 i.e.e.e.e.e.>.:.:.                              ",
"          ;.* 9.L.U.U.F.M.M.H.R.R.T.T.T.R.R.R.R.U.U.U.H.J.B.j.: $ A S Q Q Q Q 3 i.u.l.s.y.:.&.#.                                ",
"            o.% D L.U.U.H.H.T.T.U.U.R.R.R.R.R.R.R.Y.U.U.B.d.$., A S Q ~ ~ ~ ~ 3 u.i.b.N.N.b.b.N.                                ",
"            ,.- A ^ L.U.U.U.U.U.U.U.U.R.R.R.R.R.Y.Y.U.U.F.B.m.z.c.q.9.D ^ ~ Q q.t.y.v.v.v.b.b.b.b.N.N.                          ",
"              3.1 Q.E.U.U.H.H.H.U.U.U.U.Y.Y.Y.Y.Y.U.I.F.V.B.m.m.N.b.n.z.c.9.9.j.:.>.s.d.d.k.v.v.v.v.b.b.b.                      ",
"            W.U.I.V.M.F.H.H.H.H.H.U.U.U.I.I.I.F.V.z.g.3.3.t.u.s.k.v.k.v.v.v.d.t.*.:.t.f.f.f.d.d.k.k.k.v.v.n.n.                  ",
"            L.I.G.U.B.B.H.U.G.F.F.G.F.F.F.F.B.l.t.;.2.7.7.7.5.,.y.f.f.s.f.d.f.p.r.>.e.p.s.s.f.f.f.f.d.d.d.d.d.k.n.              ",
"            5.4.x.F.F.F.I.I.F.D.F.F.F.D.D.m.f.,.2.(.3XtXtXqX3X_.5.u.s.a.p.s.s.a.p.y.e.y.p.a.a.a.a.a.a.s.s.s.f.f.f.d.            ",
"            i.#.P.I.V.F.I.I.F.D.D.D.D.M.M.l.,.0.1XaXlXzXxXlXhXaX4Xh.s.a.u.p.p.p.p.p.u.y.u.u.y.y.y.y.y.y.u.u.u.p.p.a.f.          ",
"            j.4.uX6XV.V.F.F.D.D.D.D.B.N.b.y.5.1XhXcXcXcXcXxXlXhXdX,Xf.a.u.u.u.u.u.u.u.y.t.r.>.:.:.:.:.:.>.>.>.>.r.t.u.a.        ",
"              h.kXzXE.m.B.V.B.D.D.B.M.N.l.,._.hXcXcXcXcXxXlXlXhXhX9Xz.s.u.t.t.y.y.y.y.t.>.:.*.&.&.&.&.&.&.&.*.*.-.*.:.,.        ",
"              c.kXnX5Xm.M.B.B.B.B.B.M.m.a.0.tXcXcXcXcXwX3 ~.pXhXhXuXx.s.y.r.t.t.t.t.t.>.:.-.#.+.o.o.o.o.o.+.+.+.#.#.&.-.,.      ",
"              x.0XnXjXI.N.M.M.M.M.M.M.b.3.w.dXxXxXlXlX4 X 4 ~.aXdX9Xx.p.t.r.r.r.r.r.>.:.*.-.#.= = = = = - - - O.O.O.O.#.;.      ",
"                5XnXvX5Xm.N.m.m.m.m.m.s.4.}.hXlXhXhXsX, . X o .XsX6Xl.y.>.>.>.>.>.:.*.*.-.-.*.X.                                ",
"                W.zXvXhXL.l.b.n.b.b.d.,.9.wXdXdXhXsXsX, . . X `.uXL.u.>.:.:.:.<.*.*.&.&.&.*.<.<.<.<.                            ",
"                  0XvXvX).%.g.a.a.u.;.6.}.iXsXsXaXpXaX!.X . O {.P.g.:.*.*.*.*.&.=.@.@.@.&.*.:.e.y.t.e.                          ",
"                    kXcXyX, O 6.7.7.9.{.eXyXpXpXpXiXyXwXZ.@ 4 P.3.;.1.1.1.#.@.@.@.+.+.@.@.&.,.j.g.p.p.u.u.                      ",
"                    3X!.4 * O 4 ~.).}.2XeXyXiXyXyXyXwXwXeX1X_._.`././.~ ^ A 2 %.+.$.0.q.q.P.0XkX6Xc.y.p.p.                      ",
"                    >X/ o X X X o , ^ #X%X:XrXrXrXrX:X:X:X:X;X@X' ( b S S Q %X2X<X4XhXbXvXpXsXbXvX6Xi.t.u.c.                    ",
"                      >X+X/ A < % $ ' =X;X;X;X;X;X;X=X$X] ) P n x n +XgXfXwXjXnXbXiXwXbXbXcXhXvXvXlXC.3.P.9XcXvXxXsXqX          ",
"                          ;X@X] _ ( _ _ ) _ _ _ _ ( ( V b v v v v ^ pXvXbXcXsXbXbXvXcXbXvXvXcXcXlXhX3X,XaXxXlXpX8X|.            ",
"                              ' ) _ ( ( ( W b b b n n v v v v v x ^ wXxXbXbXbXvXvXvXcXcXlXhXhXsXpXyXqXqXhXjXqX].).              ",
"                                    ( ( S b b n v v v x x z z + + @ Q.hXcXcXxXxXlXhXhXsXsXpXiXyXwX8X X}.8X3Xw.4.                ",
"                                          2 : @ % + + + + @ o & & & * }.sXsXaXpXaXiXyXyXtXqX8X2X.X|.{.{.{.7.+.&.                ",
"                            @X} ` ~ Q S 9.7.D A n n c c c c c < ; ; A ^ %XeXeXeXeXeX2X2X.X.X X|.}.{.{.).                        ",
"                        >X@X` ( S b S 9.).+X' ` ) ) ` ) ) ~ ! ! S 5 5 ~ +XXX.X.X.X.X.X X X|.|.}.{.).!.                          ",
"                      >X] P n         ].@X{ [ [ [ [ [ } } } ` ` ~ ! A A ' +X#XXXXX|.|.|.}.{.[.!.3 4 (.                          ",
"                    >X;X`           P.%X@X@X{ { @X@X@X@X@X{ [ ' ` ) ! < D =X*XXX{.{.{.).!.Q.A.8.~.8XaXtX                        ",
"                      >X;X[         ,X;X@X{ $X-X=X=X=X=X=X=X$X{ [ ' _ A ; ~ =X:XtXiXsXsXsXsXdXhXhXuX.X{.                        ",
"                      ;X;X;X@X+X  3X<X;X@X@X-X=X;X;X;X=X=X-X-X| { ] ) A ..; } :XtXyXwXwXwXeXeX.X|.{.{.}.                        ",
"                          ;X:XfXdXqX,X%X$X{ -X=X-X-X-X-X-X$X| { ]  ._ 1 +.= 1 %XsXhXdXpXiXyXtXtXtXuXtX3X                        ",
"                          dXpXyXyXyX3X_.+X{ { | $X| | | | { ] ] ) ( 5 O.....O.Q.rXpXsXhXhXhXdXpXyXeX.X                          ",
"                            7XwXaXhXdX}.9.^.] ] ] ] ] ] ]  .) _ S 2 O.o.o.O.      @X#X+X+X/./.                                  ",
"                              pXyXeXXX8.1 6.9.D ^ ) ) ) _ Q A 2 %.+.X.....            ) (                                       ",
"                                eXeXwXtX X8.> ;.1.2.6.6.%.%.#.+.+...X.=.=.                                                      ",
"                                  cXcXhXiX|.9.3.>.@.=               *.>.t.t.                                                    ",
"                                  xXcXhXyX2X(.4.t.:...                y.l.l.a.                                                  ",
"                              cXdXpXhXaXqX X).5.t.>.@.                  d.b.l.a.                                                ",
"                              wX|. XeX X{.!.8.2.t.t.*.X.                s.l.b.d.                                                ",
"                              eX8XeXXX~.Z.3 , * y.u.:.X.                  f.b.b.s.                                              ",
"                                              * ;.y.>...* > 8.              f.n.k.a.                                            ",
"                                        xXtX).A.w.P.P.S.(.}.3X].8.        3X5.g.f.a.C.(.A.S.].].                                ",
"                                        xXcXcXcXcXxXlXhXsXtX XQ.3       sXhXtX4X5X<X,X].[.].1X1X].                              ",
"                                        dXdXdXsXaXpXyXeX X`.Q.4 4       tXaXhXxXxXxXhXiXqX3X1X}.[.                              ",
"                                        vXcXcXcXxXlXhXaXtX2X|.).Q.      eXqXyXpXaXaXaXwX2X X}.[.[.                              ",
"                                        hXhXlXxXxXxXlXhXsXtX2X`.8.      sXhXxXxXcXcXxXjXuX8X3X1X].                              ",
"                                        tX8X8X2X2XXX^.^.^.Z.D < @       aXhXxXcXxXxXxXhXuX8X1X}.].[.                            ",
"                                    OXT oX%XwXiXtX.XF q 8 7 7 # # w     F F F ^. X2X2X3X1X].(.8.D                               ",
"                                OXY B j f h K %XyXyXtXoXu r r 9 8 6 w   e u U %XyXpX%X%XoXoXoX^.).(.                            ",
"                            OXR J j j h f f f a oXwXqXqXoXe r 9 8 6 7 r a oXsXaX%XY B l j h g s H Z.).                          ",
"                        &XOXK k k k j h f f f i p oXeX7X2XE r 9 8 6 8 p oXsX7XT K N j j j h f f p C E 5 %                       ",
"                      OXY N N N B l j h f f i i t a oX2X.X'.q 8 8 6 r U aX%XR Y I K B j j j h f i d C Z m                       ",
"                  &XOXK J J J J l k j h f i i p t t H .X X}.Z 8 6 6 u 7X7XI L Y Y L J k k j j h f i s H x m                     ",
"                &XT L Y Y L J l l h h g i t t t e e u '.`.!.G 7 7   U wXT l J I Y L J N k k k j g f d C H x                     ",
"                Y L OXT L B l a p p t t y e e 0 0 0 q                 %XI j j J L K J N N N N k h g i s H Z                     ",
"                  s s u y y y 0 0 0                                     U M M l B J J N N N J N k g i d H Z                     ",
"                                                                              M M s j l k N L T L h i d Z                       ",
"                                                                                      a a a s K J p u q                         ",
"                                                                                                                                "
};
