/* XPM */
static char *_ad2a553a7554a95fa5360eae06fb3a9wvE9ME0jfok82cJK[] = {
/* columns rows colors chars-per-pixel */
"64 64 219 2 ",
"   c None",
".  c #1C1A17",
"X  c #393838",
"o  c #550B0B",
"O  c #691414",
"+  c #761212",
"@  c #732829",
"#  c #6A5138",
"$  c #031348",
"%  c #021353",
"&  c #02135B",
"*  c #021B5D",
"=  c #0C164C",
"-  c #22295D",
";  c #021665",
":  c #02176C",
">  c #031A6B",
",  c #021B64",
"<  c #031A72",
"1  c #031D7C",
"2  c #11267E",
"3  c #24326D",
"4  c #3B4879",
"5  c #554646",
"6  c #585858",
"7  c #544B4C",
"8  c #714C4D",
"9  c #7B604D",
"0  c #4C5176",
"q  c #5F6060",
"w  c #646565",
"e  c #6B6B6D",
"r  c #6F6F70",
"t  c #76697B",
"y  c #737374",
"u  c #7A7B7C",
"i  c #787877",
"p  c #776E69",
"a  c #4E6C4E",
"s  c #8E1615",
"d  c #A61A19",
"f  c #8C292A",
"g  c #972727",
"h  c #863737",
"j  c #953132",
"k  c #9C3B3B",
"l  c #A72728",
"z  c #BD2D2D",
"x  c #B42828",
"c  c #A5393A",
"v  c #B33531",
"b  c #C3292B",
"n  c #CA3131",
"m  c #C23737",
"M  c #D63939",
"N  c #CC2D32",
"B  c #E13E3D",
"V  c #8D5539",
"C  c #A77E32",
"Z  c #C55132",
"A  c #C16F33",
"S  c #8A4D4C",
"D  c #944E4E",
"F  c #AC4748",
"G  c #B34748",
"H  c #A25455",
"J  c #977448",
"K  c #997956",
"L  c #906C42",
"P  c #A37D57",
"I  c #A37B4C",
"U  c #946869",
"Y  c #877676",
"T  c #967975",
"R  c #9E7F6D",
"E  c #BB726B",
"W  c #CB5455",
"Q  c #E74644",
"!  c #7AA87C",
"~  c #BF8838",
"^  c #998541",
"/  c #AD8758",
"(  c #A69357",
")  c #B89452",
"_  c #8A877B",
"`  c #BB8C68",
"'  c #AC8D6C",
"]  c #ACA071",
"[  c #C9985D",
"{  c #C7AA46",
"}  c #D5AA53",
"|  c #CB9D63",
" . c #D19D62",
".. c #CDA16C",
"X. c #D8A76B",
"o. c #D6A877",
"O. c #CFB472",
"+. c #EAB776",
"@. c #E9B370",
"#. c #F7C179",
"$. c #E9D87F",
"%. c #031E82",
"&. c #032184",
"*. c #04238B",
"=. c #05288F",
"-. c #042593",
";. c #052994",
":. c #062A9C",
">. c #052697",
",. c #163A9E",
"<. c #293B8A",
"1. c #283C97",
"2. c #062CA3",
"3. c #062DAB",
"4. c #0529A5",
"5. c #0B31A4",
"6. c #0730AB",
"7. c #0932AC",
"8. c #0730A5",
"9. c #1739A8",
"0. c #052EB5",
"q. c #062FBC",
"w. c #0731B3",
"e. c #0934B4",
"r. c #0631BC",
"t. c #0936BB",
"y. c #0A38BE",
"u. c #173DB3",
"i. c #324892",
"p. c #334BA5",
"a. c #3954AC",
"s. c #2043AF",
"d. c #4F588D",
"f. c #5C678A",
"g. c #676987",
"h. c #7E7F80",
"j. c #72788F",
"k. c #495AA8",
"l. c #5F70AC",
"z. c #6676AF",
"x. c #6074B4",
"c. c #0634C2",
"v. c #0937C3",
"b. c #0A39C4",
"n. c #0738CB",
"m. c #0B3BCC",
"M. c #0736C9",
"N. c #0B3DD3",
"B. c #0B3FD9",
"V. c #0738D2",
"C. c #1743C9",
"Z. c #0D40D5",
"A. c #0D41DC",
"S. c #335CD7",
"D. c #234ED2",
"F. c #3961D8",
"G. c #5671C3",
"H. c #6A7EC0",
"J. c #C37F81",
"K. c #7184BD",
"L. c #6D83C3",
"P. c #838484",
"I. c #8B8B8C",
"U. c #888886",
"Y. c #958485",
"T. c #878A94",
"R. c #929394",
"E. c #9B9B9C",
"W. c #979698",
"Q. c #B48687",
"!. c #AA9697",
"~. c #9DA584",
"^. c #BFBB8B",
"/. c #9E9EA1",
"(. c #9199B8",
"). c #A3A3A3",
"_. c #ABAAAB",
"`. c #B9AEAA",
"'. c #AFAFB1",
"]. c #B3B3B4",
"[. c #BBBABC",
"{. c #BBB9B8",
"}. c #97B0B1",
"|. c #C69596",
" X c #CEAD86",
".X c #E3B881",
"XX c #C5BABA",
"oX c #ADD0AF",
"OX c #ECC88B",
"+X c #F2D387",
"@X c #CDC4B9",
"#X c #919CC5",
"$X c #8DA0DD",
"%X c #BBBDC9",
"&X c #A1ACD3",
"*X c #C4C4C5",
"=X c #C8C9C9",
"-X c #CBCBD1",
";X c #D3D3D5",
":X c #D7D7D8",
">X c #DBDBDD",
",X c #DAD4D5",
"<X c #D7C8C9",
"1X c #E4DEDC",
"2X c #DFDFE0",
"3X c #D3DCE0",
"4X c #D6DCF1",
"5X c #E0DFE0",
"6X c #E4E3E4",
"7X c #E5E6E8",
"8X c #ECEBEC",
"9X c #E9E7E8",
"0X c #ECEDF2",
"qX c #E6E8F0",
"wX c #F3F2F4",
"eX c #FBFBFB",
"rX c #F8F7F8",
"tX c #EFF0F2",
"yX c #CDEBCE",
/* pixels */
"                                                                                                                                ",
"                                                                                                                                ",
"                                                        u.t.                                                                    ",
"                                                        t p.w.              y.r.t.t.e.e.w.w.w.w.w.                              ",
"                                                        R T u.3.7.    b.b.v.v.b.b.b.y.t.e.w.3.2.2.2.2.2.                        ",
"                                                        T [ g.e.2.w.r.b.b.M.M.M.M.M.b.b.b.y.r.e.6.:.-.=.;.                      ",
"                                                        Y ) P p.3.w.b.b.m.m.m.m.m.m.M.b.b.b.b.r.t.e.6.;.                        ",
"                                    wX2X                f.' P 0 e.t.b.m.m.N.N.N.N.m.m.M.m.b.b.b.r.t.t.e.e.                      ",
"                                    6X2X                t.1.1.9.b.M.M.m.m.N.N.N.N.m.m.m.M.M.M.b.b.b.t.e.e.w.                    ",
"                                    6X8X              b.r.0.0.M.N.m.m.m.m.N.N.m.m.M.M.M.b.b.b.b.b.b.b.r.e.e.7.                  ",
"                                      0X:X          b.M.c.v.m.m.m.m.N.N.m.m.m.b.t.e.r.t.r.r.b.b.b.b.b.y.t.e.e.7.                ",
"                                      wX6X      @Xu.b.9.l.H.C.N.N.N.N.N.m.m.b.3.-.-.>.:.4.3.7.w.e.t.y.y.y.t.e.7.6.              ",
"                                      7X8X    ;XT.u.7.(.8XrX$XZ.N.N.N.N.N.m.b.3.%.& & > 1 &.*.>.:.2.7.e.e.t.t.e.7.6.            ",
"                                  8XwXeXwX=X  *Xf.c.a.>XwXeX4XD.B.N.N.N.N.m.M.r.w.-.> $ $ % ; < 1 *.-.:.2.7.e.e.e.7.            ",
"                                  wXrXeXeX6X-X_.i.c.x.8XwXeX0XS.N.N.Z.Z.Z.N.N.M.b.r.w.:.1 & % &   < 1 &.*.;.:.8.7.e.7.          ",
"                                7X8XwXwXwXwX=XP.,.v.K.8XoXyX0XF.N.N.Z.Z.A.Z.N.N.m.M.M.r.e.2.&.; ;             -.:.8.7.          ",
"                                  >X7X8X8X7X{.i   b.L.8XoX! 3XS.N.N.N.N.N.N.B.B.N.N.m.M.b.r.w.:.< :                             ",
"                                  *X:X2X>X;X].    b.G.6X*Xa }.D.M.m.N.N.N.N.B.B.N.N.N.m.m.b.r.w.:.1 <                           ",
"                                    [.=X;X:X[.R.  w.a.;X:X~.^.`.x.m.m.m.V.V.V.N.N.N.N.N.N.m.M.r.w.:.1 1                         ",
"                                      %X*X[.=X/.e   i.{.@XOX+X+XOXk.r.c.c.M.n.m.V.V.N.N.N.N.m.b.t.6.=.1                         ",
"                                        {.:X{.7 X      X.X+.@.+.+.Y.4.4.4.3.0.r.c.M.m.N.N.N.N.m.b.e.2.*.&.                      ",
"                                        [.W.K I # . K ....| |  . .P 2 %.%.*.*.>.:.3.w.b.m.N.Z.N.m.r.6.:.=.&.                    ",
"                                               .X.X.  / / J J J L # = % % * , > > > &.:.w.b.N.Z.N.b.w.:.:.;.                    ",
"                                                X.+.+.  ) I 9 7 - = $ $ $ % , ; & & & ; &.2.t.m.Z.m.t.2.  ;.                    ",
"                                                  X.@.#.#.+.X.` <.4.>.%.> & ; : < < : : ;   :.7.b.Z.y.8.                        ",
"                                                      @...t d.i.t.c.c.q.4.%.> < 1 1 1 1 <       6.b.b.7.                        ",
"                                                          7.M.V.V.V.V.V.M.0.*.< 1 &.&.%.1         6.y.e.                        ",
"                                                          Z.A.A.B.B.B.B.B.V.0.%.< &.*.*.&.            e.                        ",
"                                                          N.A.B.N.M.b.M.N.B.V.4.%.    -.=.                                      ",
"                                                          N.A.N.r.:.%.*.w.b.N.r.*.      -.                                      ",
"                                                          N.A.N.w.*.<       r.M.2.                                              ",
"                                                          N.N.b.3.-.3 y       v.3.:.                                            ",
"                                                          M.n.3.3.r.5.d.                                                        ",
"                                                          n.M.>.%.=.s.u.9.                                                      ",
"                                                          V.n.>.&.1 0 j.g.f.                                                    ",
"                                                          N.M.>.>.4.<.W.]._.).                                                  ",
"                                                          A.M.:.  0.5.j.{.]._.                                                  ",
"                                                          A.M.;.  w.w.i./.[.].                                                  ",
"                                                          A.M.;.  3.c.5.T.).                                                    ",
"                                                          A.b.;.    v.t.p.                                                      ",
"                                                          A.b.;.    r.M.3.                                                      ",
"                                                          A.m.;.      M.t.:.                                                    ",
"                                                          A.m.;.      r.b.3.                                                    ",
"                                                          A.N.:.        v.w.-.                                                  ",
"                                                          A.N.:.        4.7.p.%X6X:X                                            ",
"                                                          N.N.:.        z.&XqXwX6X-X                                            ",
"                                                          C.M.:.4 E.  *X5XwXeXeXtX7X:X                                          ",
"                                                        ).d.3.&.0 '._.R.{.9X,X|.J.|.`.                                          ",
"                                                      6X2X%X#X(.-X2X].  _.Q.c x b N W                                           ",
"                                                        :X7X8XwXwX7X_.  Y g l l x N M m                                         ",
"                                                        >X7X8XwXeX8X).  @ g j D H F F c j D                                     ",
"                                                        XX6X8X9X,X`.Y   + h Y I.I.U.Y.T S h V                                   ",
"                                                    XXD f k F G c f O   @ p P.P.P.P.I.W.R.Y V C                                 ",
"                                                <X6XQ.l z n M M n d s O 5 y u u h.u i P.P.U.Y J {                               ",
"                                              E 1X,XG z n M Q Q M x s o 6 r i u P.P.P.P.u i i _ (                               ",
"                                            Z } OX Xv n M M B M n d + o 5 w i U.U.P.P.P.h.i y r p ^                             ",
"                                          j A ) { +.v x z z z x g h 8 5 5 q P.P.P.h.i y r y i u y                               ",
"                                          S ~ ] O.o.g l l l g f U W.P.e 7 6 i u i r r i i u i u                                 ",
"                                          Y ) { $.` f g f f D !.'.I.i y w   6 w y i u i                                         ",
"                                            _ ( O.' U U T Y._.].).P.i r w                                                       ",
"                                                U.R.W.W.W.E.).E.E.P.i                                                           ",
"                                                          E.                                                                    ",
"                                                                                                                                ",
"                                                                                                                                "
};
