/* XPM */
static char *_d623f93621e45ded076c65c4943786fb1wWjBHlNh3rQ7ka[] = {
/* columns rows colors chars-per-pixel */
"64 64 234 2 ",
"   c None",
".  c #030303",
"X  c #790204",
"o  c #6E1228",
"O  c #602C31",
"+  c #121C5A",
"@  c #0A165A",
"#  c #0C1B68",
"$  c #0B1E78",
"%  c #152477",
"&  c #16236A",
"*  c #37247A",
"=  c #2B3475",
"-  c #232F7E",
";  c #3C385B",
":  c #571750",
">  c #451D64",
",  c #4B256A",
"<  c #554F72",
"1  c #7E7478",
"2  c #706871",
"3  c #63525E",
"4  c #8A0202",
"5  c #9A0000",
"6  c #920000",
"7  c #861515",
"8  c #91111A",
"9  c #A30000",
"0  c #AC0000",
"q  c #AA0B0B",
"w  c #B20000",
"e  c #BB0303",
"r  c #B70F0F",
"t  c #A71717",
"y  c #BD1413",
"u  c #B1171D",
"i  c #932D2F",
"p  c #B62727",
"a  c #BA3434",
"s  c #A13435",
"d  c #C20707",
"f  c #CC1313",
"g  c #C81817",
"h  c #D21212",
"j  c #D31C1C",
"k  c #D83D12",
"l  c #C52727",
"z  c #C43737",
"x  c #D05615",
"c  c #801C43",
"v  c #9A3E40",
"b  c #975354",
"n  c #A85557",
"m  c #B64D4E",
"M  c #8F5F67",
"N  c #8F6E78",
"B  c #A97977",
"V  c #B87576",
"C  c #A86E68",
"Z  c #996E48",
"A  c #CF5151",
"S  c #E27F7F",
"D  c #D47862",
"F  c #618D74",
"G  c #FAA909",
"H  c #FDB503",
"J  c #FAB317",
"K  c #F7A913",
"L  c #F4B525",
"P  c #ED9120",
"I  c #FEC10A",
"U  c #AE8F73",
"Y  c #BB8458",
"T  c #CB987B",
"R  c #D1956E",
"E  c #E7A56D",
"W  c #E7B47E",
"Q  c #FDBB75",
"!  c #F9B777",
"~  c #FAB36E",
"^  c #FCBA5A",
"/  c #FFC37D",
"(  c #FFC77D",
")  c #FBC64C",
"_  c #0C2288",
"`  c #142688",
"'  c #0E2697",
"]  c #142793",
"[  c #182B9A",
"{  c #1E3295",
"}  c #21329C",
"|  c #283596",
" . c #353B98",
".. c #282B86",
"X. c #0E29A5",
"o. c #0D2AAC",
"O. c #142BA4",
"+. c #132CAC",
"@. c #192EA9",
"#. c #1C32AC",
"$. c #1D30A3",
"%. c #0E2CB5",
"&. c #0E2EBB",
"*. c #132EB3",
"=. c #112FBA",
"-. c #1A2FB0",
";. c #1630B6",
":. c #1B33B4",
">. c #1431BD",
",. c #1B34BC",
"<. c #1E39BE",
"1. c #0F30BF",
"2. c #2738A8",
"3. c #323DA9",
"4. c #2236B3",
"5. c #273CB8",
"6. c #324697",
"7. c #3A46A6",
"8. c #3646B7",
"9. c #2E41B1",
"0. c #5A5798",
"q. c #51548E",
"w. c #79768B",
"e. c #77678E",
"r. c #4455B4",
"t. c #4950AF",
"y. c #5A65B5",
"u. c #5760A7",
"i. c #6D71AF",
"p. c #635496",
"a. c #102FC0",
"s. c #0F31C3",
"d. c #0E33CB",
"f. c #1432C3",
"g. c #1935C3",
"h. c #1B38C3",
"j. c #1234CE",
"k. c #1333CA",
"l. c #1A36CB",
"z. c #1B38CB",
"x. c #1536D2",
"c. c #1537D6",
"v. c #1235D2",
"b. c #1638D7",
"n. c #1A39D4",
"m. c #1639D9",
"M. c #193ADA",
"N. c #1B3BDB",
"B. c #1937D0",
"V. c #0C2EC0",
"C. c #213BCD",
"Z. c #2339C6",
"A. c #233DD3",
"S. c #283ED1",
"D. c #2A41D6",
"F. c #2740D5",
"G. c #3148C1",
"H. c #4559CA",
"J. c #5567D3",
"K. c #727CC8",
"L. c #8C788F",
"P. c #8578A2",
"I. c #C17E80",
"U. c #7884DE",
"Y. c #8B8589",
"T. c #968489",
"R. c #978C95",
"E. c #9D9396",
"W. c #8C8392",
"Q. c #AA8B8A",
"!. c #A69899",
"~. c #B69696",
"^. c #B78C8E",
"/. c #BEA28D",
"(. c #9696B9",
"). c #8D8AAB",
"_. c #AAA4AB",
"`. c #B4A9AD",
"'. c #ABA7B6",
"]. c #B8B3B9",
"[. c #B8ACB5",
"{. c #91B096",
"}. c #D09185",
"|. c #E19191",
" X c #DCB386",
".X c #CEAE8D",
"XX c #EBB983",
"oX c #CAA8AB",
"OX c #C5BBBA",
"+X c #D5B5AF",
"@X c #9ECDA3",
"#X c #FAC880",
"$X c #FAD78C",
"%X c #F2CA95",
"&X c #FFE892",
"*X c #E4C9AE",
"=X c #8D93C9",
"-X c #8C8FC9",
";X c #A09FC7",
":X c #A7A6C7",
">X c #B9B7CB",
",X c #B8B6D7",
"<X c #A6ABD8",
"1X c #C4BDC2",
"2X c #BFC3DB",
"3X c #CEC9CD",
"4X c #C9C3C8",
"5X c #D5CACC",
"6X c #CBC8D5",
"7X c #D6CED4",
"8X c #D3D1D6",
"9X c #DBD1D4",
"0X c #DDD5DA",
"qX c #D9D7DB",
"wX c #E2DADD",
"eX c #E6D6D7",
"rX c #EBCFD0",
"tX c #E4DEE2",
"yX c #EADFE5",
"uX c #ECE2E4",
"iX c #EEE5EA",
"pX c #E9E5E6",
"aX c #F2E7E9",
"sX c #F4EAEC",
"dX c #FAECEC",
"fX c #F1E4E6",
"gX c #EAE7F3",
"hX c #FAEFF1",
"jX c #F1EDF0",
"kX c #FCF3F4",
"lX c #FFF7FA",
"zX c #FFFCFD",
"xX c #F4F1F4",
"cX c #DCD8E3",
/* pixels */
"                                                                                                                                ",
"                                                                g.k.l.x.c.n.M.M.N.                                              ",
"                                                                  ,.g.f.f.k.j.x.b.M.M.N.                                        ",
"                                                                    :.,.=.=.>.f.k.j.c.M.M.N.                                    ",
"                                                                      :.-.+.*.%.&.1.f.j.x.M.M.N.                                ",
"                                                          N.N.N.N.N.N.n.l.g.;.+.o.o.%.&.f.j.c.M.M.                              ",
"                                                  M.M.m.m.b.c.c.c.c.b.m.m.M.M.B.g.+.X.o.%.s.k.x.b.M.N.                          ",
"                                              x.x.x.v.j.j.j.j.j.j.j.v.v.v.c.c.m.m.n.g.+.X.o.&.f.j.c.M.M.                        ",
"                                            h.h.l.l.k.k.k.k.k.k.k.k.k.d.d.d.v.v.c.c.m.n.>.X.o.&.s.j.x.M.N.                      ",
"                                                ,.h.h.g.g.f.f.f.f.f.k.k.k.d.j.d.v.v.v.b.M.B.=.o.&.s.j.x.M.N.                    ",
"                                                    ,.,.,.g.g.g.f.f.f.f.g.k.k.k.d.d.j.v.v.b.n.l.g.f.k.j.x.n.M.C.                ",
"                                                        :.:.,.,.g.g.g.g.f.g.g.k.k.d.d.d.d.j.x.n.n.n.x.j.j.x.c.r.0.              ",
"                                                            #.;.:.>.>.>.g.g.g.g.g.k.k.d.d.d.k.l.l.l.l.k.f.f.k.y.T p.            ",
"                                                              2.#.*.;.>.>.>.g.g.g.g.f.f.d.d.k.f.f.g.g.g.=.=.,.y.Q T t.          ",
"                                                              ,.4.2.#.*.=.>.>.g.g.g.f.f.s.s.s.s.f.f.>.>.g.>.,.i./ Q L.          ",
"                                                      j.k.g.>.*.+.[ } } +.*.=.>.>.g.g.f.f.s.s.s.f.>.=.=.>.,.,.L./ Q T 5.l.l.    ",
"                                                F.J.U.H.g.=.*.X.' ' _ ` | } +.=.=.>.g.g.g.f.f.s.s.&.&.&.=.:.,.^.Q Q E t.k.k.    ",
"                                                2XgXzXyX=X5.O.O.' _ _ $ $ - | O.*.=.>.>.g.g.f.f.s.s.&.&.=.=.5.}.~ ~ R 8.l.f.    ",
"                                              zXzXzXzXzXsX:X3.[ ] _ _ $ # # & ..[ +.>.>.g.g.f.f.f.f.V.&.>.=.9.T B e.7.g.n.l.    ",
"                                            zXzXzXzXzXzXlXaX=X} ] ] ` % % # @ + = { +.>.>.g.g.f.f.f.f.>.>.=.:.3.:.=.=.C.A.n.    ",
"                                          xXzXzXzXzXzXzXzXhX7Xy.r.9.+.O.] ` & + + = [ >.>.g.g.f.f.f.f.f.>.&.>.Z.Z.>.g.S.D.n.    ",
"                                          xXzXzXzXzXzXzXzXdXuXgXxX6Xr.o.o.o.X.] ` ` O.>.g.g.f.f.f.f.f.f.f.s.g.h.g.>.g.S.D.A.    ",
"                                        lXzXzXzXzXzXzXzXkXuXlXzXaXeX6X<X=X5.%.%.%.%.=.>.g.g.f.f.f.f.f.f.f.s.f.g.g.g.g.S.D.A.    ",
"                                        iXtXuXkXzXzXzXlXuXsXzXsXfXzXzXzXaXi.+.=.>.>.g.g.g.g.f.f.f.f.f.f.f.f.s.s.f.g.z.A.D.D.A.  ",
"                                        0X`.].wXdXkXkXsXeXkXhXuXlXzXzXsXOXi.@.;.>.>.g.g.g.g.g.f.f.f.f.f.f.f.s.<.<.f.B.A.D.D.A.  ",
"                                          7X5X9XiXsXaXuX9XsXfXdXzXzXkX+XU N | +.;.>.>.g.g.g.g.g.f.g.g.g.f.h.K.,X:Xr.>.A.D.D.A.  ",
"                                          wXOX9XpXuXuXwX>XyXaXdXkXhXeXW ( #X.Xe.2.;.>.>.g.g.g.f.f.g.g.f.g.-XsXkXiX'.2.g.A.D.C.  ",
"                                          wXwXuXtX0X3X].(.8XpXaXsXaXOXT  X$X&X&X~.3.=.>.>.>.f.f.>.>.f.V.J.iXlXzXhX9Xu.%.C.A.C.  ",
"                                          0X0X0X7X1X_._.[.4X>X6XuXuXOX).| q.W.%X&X!.;.=.>.>.>.>.=.=.=.g.,XzXzXzXkXyXi.%.z.A.    ",
"                                            3X3X4X].'._.  ].(.i.>X,X(.8.*.o.o.7..X$Xu.&.&.=.=.&.&.=.&.H.gXzXzXzXkXpXy.%.g.C.    ",
"                                                                  2.2.4.5.5.:.*.t.%X.X9.&.=.&.&.&.&.&.K.hXlXlXlXxXcXr.%.g.h.    ",
"                                                                    } 2.;.#.2.2.2.e.$X!.2.=.%.%.#.7.2.-XdXkXkXkXjX:X#.>.g.      ",
"                                                                        4.+.+.O.[ { Q.$Xe.} 2.0.}.XX X.X*XwXsXpX{.6.%.>.        ",
"                                                                        4.*.+.+.+.O. .W.q.{ < R ! / ( #XXX+X9X@XF { *.          ",
"                                                                        4.*.*.*.;.;.*.=.;.$.< Y E ! ! / ( W /.U                 ",
"                                                          L.2         8.,.=.;.>.>.>.>.>.,.#. .  R E ~ ! / / ! E Z               ",
"                                                        R.Y.1 2 3     5.>.=.>.>.>.>.>.s.g.4.0.      E E ! ! ! !   . . .         ",
"                                                      E.E.Y.1 3 O O  .h.>.>.>.>.=.&.V.f.8.R.                        . .         ",
"                                                      !.R.M i 7 7 o | h.>.>.=.=.9.u.P.~. XXX                                    ",
"                                                    !.E.M , * * > * #.,.>.>.=.7.B C U B 3 =                                     ",
"                                                    !.T.p u c , ..] ] ,.>.>.:.q.; # % _ _ ' [                                   ",
"                              [._.                !.E.n y q q q 8 o ..>.>.>.0.!.< & % % % ` +.5.                                ",
"                        `.^.V V Q.E.              !.B u 9 5 6 4 X > >.g.f.7.!.9X_.% ` ' O.*.,.                                  ",
"                      ^.A j h h g a b 1         E.E.v 9 5 6 4 X > >.g.f.8.).4XuX3X| o.*.,.5.                                    ",
"                  `.V l h h h f f f y s         R.T.t 5 6 4 X > g.f.s.G.(.1X0XaX0Xt.#.                                          ",
"                /.m g h f f f f f y r t i       Y.`.~.n i 4 : g.f.f.G.;X5X7XwXfXtX'.                                            ",
"              I L k f f f f f f y a m m V     1 Y.`.[.`.E.p.,.f.f.,.).7X0X9XwXuXtX4X                                            ",
"            H K I K k f f f f l |.uXsXkXuX_.W.2 w.).i.y.8.z.f.f.h.0._.0X0X9X0XwXtX                                              ",
"          H P W J J D h f f g |.zXkXzXzX7Xq.6.2.5.h.k.k.f.g.f.h.K._.'.8X8X8X8X8XqX                                              ",
"        H K XX) G %XdXS j f A hXlXlXzXzX:X` o.=.f.f.f.f.a.,.G.-X4X1X                                                            ",
"        J H L H #XlXzXdX|.y }.zXhXlXzXzX(._ O.*.=.>.-.3.y.=X>X8X6X                                                              ",
"      Q.x G H ^ dXzXlXhXuXV oXkXsXdXlXlX:X% { 6., : o 8 m I.oX4X                                                                ",
"      C y k P rXlXlXkXdXuX5X5XsXpXuXsXhXqXw.w.T.7 4 5 9 9 0 t                                                                   ",
"    ~.z g y g A rXhXdXsXuX9X4XuXuXtXuXsXiX3X].C 6 5 9 9 0 9                                                                     ",
"    V g g g f d z 5XpXuXtX0X3X7XtXwX0XtXpXtX1Xi 5 9 9 9 9                                                                       ",
"    m f g f d e e z +XtXwX0X8X3X8XqX8X  0X8XR.i 9 9 9 9                                                                         ",
"  Q.l f f e w w w w p oXqX8X8X              Y.b 0 9 9                                                                           ",
"  B g f e w w w w w w p oX                    M q                                                                               ",
"  n d e w w 0 0 0 0 9                                                                                                           ",
"  n w w w 0 0 0 0 9                                                                                                             ",
"  n w w 0 0 0 9 9                                                                                                               ",
"  M q 0 0 0 9                                                                                                                   ",
"    s q q 9                                                                                                                     ",
"                                                                                                                                "
};
