/* XPM */
static char *bf682b8fced94c60975d09d696b11d20xQgSkUaDZVLtriCH[] = {
/* columns rows colors chars-per-pixel */
"64 64 256 2 ",
"   c #0C0200",
".  c #0A0702",
"X  c #130400",
"o  c #140B01",
"O  c #1B0C01",
"+  c #180605",
"@  c #1C1302",
"#  c #1B1708",
"$  c #161511",
"%  c #220C00",
"&  c #280B03",
"*  c #241401",
"=  c #2B1400",
"-  c #251A04",
";  c #2B1B03",
":  c #241B0B",
">  c #2B1C0B",
",  c #27160B",
"<  c #321C02",
"1  c #351B07",
"2  c #2C1C13",
"3  c #261815",
"4  c #341914",
"5  c #250915",
"6  c #2C220C",
"7  c #2B2305",
"8  c #342304",
"9  c #3C2403",
"0  c #34230C",
"q  c #3A250B",
"w  c #3C2A0D",
"e  c #3B2B04",
"r  c #3D310A",
"t  c #2B2414",
"y  c #282418",
"u  c #332313",
"i  c #3C2C13",
"p  c #332B1C",
"a  c #3B2B1C",
"s  c #362815",
"d  c #3B321C",
"f  c #3C3417",
"g  c #2B381C",
"h  c #3A2924",
"j  c #3B3523",
"k  c #39352A",
"l  c #312D2A",
"z  c #271D19",
"x  c #432B0D",
"c  c #452806",
"v  c #4C330B",
"b  c #48340A",
"n  c #55380B",
"m  c #432D13",
"M  c #462C18",
"N  c #443213",
"B  c #4B3414",
"V  c #4D3B15",
"C  c #44341B",
"Z  c #4B341B",
"A  c #45391C",
"S  c #4C3A1C",
"D  c #453913",
"F  c #543B13",
"G  c #52341B",
"H  c #533C1C",
"J  c #5B3D1B",
"K  c #573714",
"L  c #502F0C",
"P  c #633B1A",
"I  c #462B26",
"U  c #443423",
"Y  c #453B22",
"T  c #4C3B23",
"R  c #443B2C",
"E  c #4B3C2B",
"W  c #493627",
"Q  c #533D23",
"!  c #563A26",
"~  c #483B34",
"^  c #533835",
"/  c #522D14",
"(  c #3D4231",
")  c #4C411B",
"_  c #45431C",
"`  c #54421C",
"'  c #5B431C",
"]  c #5A4618",
"[  c #5C4911",
"{  c #63451C",
"}  c #644A1D",
"|  c #6C4A1D",
" . c #674716",
".. c #724C1B",
"X. c #67521B",
"o. c #76561B",
"O. c #6D4A0B",
"+. c #756316",
"@. c #4C4223",
"#. c #4C432B",
"$. c #474429",
"%. c #544323",
"&. c #5B4424",
"*. c #5D4A23",
"=. c #55442A",
"-. c #5B452B",
";. c #5D4A2B",
":. c #554A27",
">. c #4C4232",
",. c #484639",
"<. c #544532",
"1. c #5C4B33",
"2. c #584936",
"3. c #5C5239",
"4. c #5A5229",
"5. c #624623",
"6. c #644A24",
"7. c #6B4D24",
"8. c #64462B",
"9. c #634C2C",
"0. c #6A4D2C",
"q. c #6A4521",
"w. c #724D26",
"e. c #6C5224",
"r. c #64522D",
"t. c #6B522C",
"y. c #6A5627",
"u. c #745224",
"i. c #7B5A25",
"p. c #73542B",
"a. c #7B562A",
"s. c #755B2C",
"d. c #7B5B2C",
"f. c #775724",
"g. c #634D32",
"h. c #694E32",
"j. c #634D3B",
"k. c #664838",
"l. c #645234",
"z. c #6C5433",
"x. c #6C5A34",
"c. c #64523A",
"v. c #6A553A",
"b. c #6D5A3C",
"n. c #675932",
"m. c #735533",
"M. c #745A34",
"N. c #7B5C33",
"B. c #735C3B",
"V. c #7C5D3B",
"C. c #775637",
"Z. c #704E33",
"A. c #79622C",
"S. c #7C6234",
"D. c #74623C",
"F. c #7C633C",
"G. c #796436",
"H. c #686234",
"J. c #583E46",
"K. c #575043",
"L. c #6C5A42",
"P. c #655844",
"I. c #735C41",
"U. c #765A43",
"Y. c #6E514A",
"T. c #766242",
"R. c #7A6443",
"E. c #7D6847",
"W. c #716956",
"Q. c #8D6616",
"!. c #835D2C",
"~. c #865A27",
"^. c #835E34",
"/. c #835B39",
"(. c #98542D",
"). c #83622C",
"_. c #89662A",
"`. c #956C2B",
"'. c #846334",
"]. c #8B6434",
"[. c #8B6B34",
"{. c #83643C",
"}. c #8B653B",
"|. c #846B3C",
" X c #8B6A3C",
".X c #866932",
"XX c #936B35",
"oX c #936C3D",
"OX c #956836",
"+X c #8D733B",
"@X c #8C7736",
"#X c #94713B",
"$X c #9C743B",
"%X c #967838",
"&X c #95782A",
"*X c #A57936",
"=X c #A27133",
"-X c #845213",
";X c #865C4A",
":X c #836542",
">X c #846B43",
",X c #8B6B43",
"<X c #856C4A",
"1X c #896848",
"2X c #916E43",
"3X c #966A48",
"4X c #8B7244",
"5X c #8D7349",
"6X c #8B7644",
"7X c #947443",
"8X c #9A7443",
"9X c #9C7B44",
"0X c #94744A",
"qX c #957B4B",
"wX c #9B7B4B",
"eX c #967945",
"rX c #896953",
"tX c #897453",
"yX c #9B7C53",
"uX c #957754",
"iX c #916C51",
"pX c #A37C43",
"aX c #A37D4C",
"sX c #A57847",
"dX c #A27E52",
"fX c #A26F40",
"gX c #887D69",
"hX c #96883D",
"jX c #AC8B30",
"kX c #9C814C",
"lX c #9B8144",
"zX c #9D8357",
"xX c #A2834D",
"cX c #A88749",
"vX c #B4884A",
"bX c #B79549",
"nX c #A58453",
"mX c #A98453",
"MX c #AB8A54",
"NX c #AB8D5C",
"BX c #A58858",
"VX c #B68C54",
"CX c #AA9359",
"ZX c #B9965A",
"AX c #AC9348",
"SX c #AA8A64",
"DX c #B18E65",
"FX c #B89766",
"GX c #B19468",
"HX c #BCA26B",
"JX c #938369",
"KX c #C39255",
"LX c #C4A357",
"PX c #C39E65",
"IX c #C28662",
"UX c #CEAF6F",
/* pixels */
"hX+.X.t.5.J K K n ] { F 6.}.a.f...!.u...a.w.{ 7.| ^.!.~.].~...i.a.f.]. Xa.a.!...a.p.p.a.f.u.p.N.Z.N. .@X[.[ 5.G G B F v F J z.9 ",
"UXcX+X>XV.z.M.M.S.4XqXt.6.|. X].].oX^.N.,X{.M.V.V.2XoX].8XoX'.|.}.d.^.'.u.u.}. X^.'.{. X|.].]. Xm.}..XZXZX#X0XC.C.m.M.p.N.M.<XG ",
"LX$X).M.0.5.6.6.n 7.:X' v M.{.q.p.p.q.} p.m.0.0.6.e.q.| u.q.' *.t.5.e.M.0.6.m.V.d.a.d.'.'.d.d.N./.{.u.$X9Xi.d.q.h.8.0.6.z.z.U.c ",
"cX_.f.p.0.8.6.6.7.7.E.9.V B.F.J 9.9.5.6.0.z.0.h.x.B.M.N.N.0.8.g.` H &.8.8.8.8.-.M.p.p.p.p.p.p.M.V.w.u.nXZX.Xu.q.-.! *.] 6.0.B.< ",
"vXOXd.M.z.z.z.t.p.5.B.;.w %.h.5.=.=.-.-.%.%.-.-.@.%.r.M.t.&.&.=.;.9.%.Z =.g.j.=.0.6.6.0.t.t.z.M.R.' ] qXBXd.q.p.g.&.&.' 6.t.I.q ",
"VXOXa.9.%.&.6.6.7.t.<XL.i i C Q U U E E i C T T d f -.B.z.8.0.8.T =.T C E <.U a S S T -.;.;.;.;.l.B H 4XBX,Xm.V.g.-.&.H *.8.B.q ",
"VX#Xs.9.%.;.z.0.' 8.v.C * * O O o     X   o ; ; u - i ;.*.*.6.' D S C T =.a * > O X     X X o O X X 8 *.F.R.6.J g.;.g.*.9.9.I.q ",
"pX.Xs.r.;.l.v.0.6.6.Z O 6 3.P.c.l : y p u R P.c.k : i &.6.6.6.F 9.%.B Q ! ; % W P.2.j p p p R >.W.P.A * < &.6.&.Q Q ;.%.;.;.b.q ",
"eXf.7.m.6.8.m.J 1.d z . . =.dXpX%XQ h s +.bXvX3Xk   O g.v.=.E E ,.Y =.j.h   o >.pXcXA.b N H d.ZXZXs.> . $ p E 0.*.r.B %.8.8.8.x ",
"+Xe.{ *.V ;.B.5.a # o 3 3 * J nXVXuXw ` lXbXMXB O t * o ; = + % O ; - o X + : : 7.NXGXA.] 0.7XZX4XH ; y y O : Q l.b.G V -.v.v.q ",
"HX5XG.l.%.v.I.G $ o   p E < = l.DXqXkX.XBXFXZ @ 1 <.j o 6 T B x m &.Y # + h E N w F.CXeXa.}.wX7XA 7 6 E E , @ : %.l.:.S Q c.L.i ",
"qXF c N N %.C = . # > M g.g.i 7 P 8X%X$X3X! , o B Z 2.$.p =.:X^./.z.@.t y k Q ' p e } XXoX3XV.v # t Y <.g.E t o * 8 S w 0 i T > ",
"+Xv c N N w * 0 t t T -.-.l.1.f J [._.`./.4 2 ( H Q 3.2.s B N.^.,X' ; - k 2.-.n R e { OX3XyXN.< y U 1.g.8.-.@.f w < %.B N q W u ",
"PX7X>XR.L.T 8 L.tXV V v.-.H r.n.mX'. XV.3X1Xm <.-.b.%.V B.<XN.C.V.S.y.V Q c.g.V Q x.kX9XN.iXuX6.C T -.g.;.*.G.CXtX&.R.t.M.0.b.T ",
"cX[.S.z.E.;.; E.ZX X6.;.:.:.A.kXcX>Xu =.,X[.oXn >.1.F  .mXNXm.B S 4XNX XP H =.@.S.kXCXF.B 8.uXqXe.*.Q =.n.|.MXUXE.H 5Xs.M.t.U.Z ",
"vXOXf.' tXl.X C Q.ZXzX%.A x.xXUX*XH 5   n AXbXsX~ C '.VXpX].H O @ y.MXcX~.&.1.P.PXVX6X` O = 0.8X8X/.&.Y b.CXbXjXG c yXS.p.7.V.G ",
"bX#X/.M.F.D.o h %.<X9X-X-X*XVXnXJ.o 7 6 , j.nXbX;X .&XbXwX-.O p A * v.SX9Xo...sXjXhXj + I M i 2.zXxX~.O.$XDX<XC X S BXi.'.z.v.T ",
"bX#X}.V.>XE.* R f :.S.].#XmX0X6.O i 7 $.h & p.XX}.$XXX XG + U :.=.C = p.oX~.sX].).V : t &.6.A t r.4X7X X7XF.C - , &.BXo.d.m.v.C ",
"ZX8X,X{.>XE.- >.s i %.p.{.5Xr.O ; 8 :.Y >.I & '.%Xo.dX! % h i H.P.C H c | dX].8X^ O : :.X.X.r.j 8 t.|.F.B.i o y U r.BXi.d.m.b.N ",
"ZX8X,X{.:XG.* E %.:.B.B.B.<XG.9 a 1.C $.P.T H F..X).^.Z.M C 1.4.<.b.` 6.|.,X2X7Xk., s l.*.*.n.9.' F.G.M.B.T u #.W 6.NX).'.V.I.D ",
"ZXeX:X{.{.B.O E | |.uXV.5.{.wX XE 2.W T %.y.6X6XU.8.M. Xe.F =.K.E n.y.qXSXU.0.s.+X} V ! K.j.0.e.7X,X6.J B.B.&.! C ' NX.X{.V.:XH ",
"MX X{.{.{.M.* 2.).8X{.x = K oXZX<XW k.G } BX+XA.I O &.i.@X+Xx J.8.e.CXNX1X^ % ` hXlXd.G ^ <.C.sXwX7.< = G M./.a.Z ] MX[.{.V.<X` ",
"lXd.N.V.>XG.= j.9X7X%.* , q q.nXcX2XK p.7XeXuX1 o 2 O Q kX%Xa.G 0.MXAXxX!   p 7 x.MXvXu.V -.,XIXR.N * - i 8.0XVX;.] xX!.d.V.<XV ",
"+Xp.m.V.{.M.= 3.d.6.> 3 ~ a 8 e.LX$X].].eX4XZ 4 7 k ~ 3 0.9Xo._.3XpXAX .& h k g 4 :XKX*Xo.G.3X(.j @ y ( p i V.mXI.{ 9Xf.w.C.>Xb ",
"aXa.7.m.E.&.< Z ( # O H 8.=.Y # Y.7XQ.&X<X~ y # ! S 2.j > -.V.].OX|.%.o y R m 0.l a M.cX$X XL.~ + 2 ) 4.A C : P.{ 5.{.m.v.M.R.V ",
"2X}.N.9.F.<X9.0.. @ C T N %.l.f < {.[..Xt.; , R Z g.T 1.T x F.p.| '.< ; E U -.Z ~ ; F .X[. X8.  h =.%.V A 1.0 i :Xm.G.6.0.z.R.%.",
"0XM.7.6.F.:XN.0Xv.i Y 3.Y w V F A.yXC.h.>Xy.w i 3.Q v.F { :X6.D.{.N.F.9 x v.Y E e V 5XyXp.V.<X&.i 9.l.%.W -.B X.uXM.M.6.9.0.B.%.",
"zXs.5.6.z.M.d.9XSX9 ; 2.@.N } #X@XB.I I M.+Xa.! E v.J  .#XqXD.f ;.zXnX!.n B =.j X.eXSX:XG J V.|.F ' 6.h.1.Z ] CX:X6.t.6.0.;.z.S ",
"zX|.M.H H F..X).].c Q @.7 ' qXZX@XN 5 4 Z +XxXN.N 6.| oXZX4XV o * 0.0XmX'.c C $.%XHXuXm = < F >X7Xe.F h.E.-.e.AXz.H 9.;.8.&.l.S ",
"nXN.m.-.! t.p.d.m.B R.B.B {.BXnXD.; 3 2 0 m.wX7XM.{ 7XyX5X8.X 0 C < M.dXnXN.v tXCXDX9.O , 0 m M.zX|.} 8.1Xh.d.%Xz.` 9.%.%.%.l.A ",
"MX .5.U.k.&.*.S.I.= 0.0X XBXqXN.X O C d 3 s 9.NX$X8XN.<X=.+ Z =.1.l.8 M.BXd.#XmXGXz.O o j E q & 6.F.S.t.B.G s.+XB.&.;.Z H =.c.C ",
"pXu.C.L.k.v.z.t.P.% q.8XOX8X5.= z s D f K.I = X.=X`.0X%.@ u E k.%.-.i ; s.wX_.`.8.% @ k k >.2.Z q t.s.p.M.9 6.|.B.&.-.N T 1.c.i ",
"wX|.U.g.=.=.H r.P.% ! yX3X0XB.* h f ` @.^ ^ K o.4XeXqX{ = m P.>.,.2.V v ).pX].sXJ = > k k #.g.F P {.:Xx.B.< 5.rXM.6.%.A =.-.B.n ",
"aXp.0.l.c.l.;.y.;.w m.:X5.{.qXM.M 1.D =.=.Q 0X$X:Xt.F.,Xt.H =.1.=.l.F kXFXa.{.iXDXt.; s 2.=.H K wX,Xt.r.E.H m.2Xp.6.;.=.1.9.R.v ",
"MXu.6.l.;.l.9.y.6.e %.C * b |.xXA.B Q x ] BXwXSX%.q V 1XyXM.H ' 6.F BXFXyX&.= P. XyXz.x B B q.DXcXA.9 ; A %.F.'.6.&.-.%.;.8.F.B ",
"nXd.N.r.` ;.l.x.:Xe 6 y # 7 ] 9XcXN.M 5.%XZXNX8.: = < &.5XyXd.n O.xXFXSX&.O , 2 | DXBX{ n u.8XFX6X` * @ > C D.6XB.z.l.&.;.*.B.V ",
"9X.X|.t.*.b.b.l.g.* # l k d m 7.AXqXV.2XAXhXN.& : U C w 6.qXeXi.`.PXNXt.; : R 3 c {.NXoXf.9XFXaX;.; , ~ k 2 w n.T.B.T.z.l.0.E.V ",
"wX XS.6.x.T.S q O   3 k R E m 9 | a.BXeX.Xf.* 4 M <.1.N c } [.#XvX[.N.= * 2.R ~ ; 8 p.wXoXaXnXe.* u R <.W R O X B G t.z.M.z.E.H ",
"wX'.e.*.D.l.; 1 : @ E <.Q 1.:.A c 7X_.%X|.1 u h &.Q ;.=.x F S. X[.|.< ; U Y c.H 2.; v '.9XnXS.% O 2.L.%.%.T.C 6 < w 6.e.M.z.E.T ",
"2XN.} *.E.-.1 2.K.s H 6.F ` :.:.rXqX&X_.iXY.2 3.m.H ;.c.9.F.0X'.N.M.=.a <.1.B 6.j @.F.7X X7X<X` a =.*.] [ y.%.JX=.;.B.N.M.t.T.C ",
"#Xd.s.t.0.l.; P.8XM.A $.K.) { pXhXG.-.-.>XCX2XK c.;.6.a. XyXD.N 5.m.:Xm.! ! 2.W P /.SXiX5.p.#X_. .m K.K.$.t.xX=XL.' 4Xa.V.8.z.) ",
"xX[.S.M.x.l.O Y aXBXG.N ` F.wXcXzXQ , 1 ] %XwXw.-.H 7.0XyXF.S ; = ' 5XyXM.B Z v.8XDXzXH % = 5.0X9XM.m -.] DXZXfXa V qXu.p.0.b.D ",
"NX#X|.G.R.v.  0 | aXmX..n #XZXaXj.2 5 2 9 X.lXxXt.' N.BX0XV * @ ; m h.yXSXM.} ,X9XeX] * * 2 U U.mX].p.n 9XVXnXK O V BXi.p.m.E.D ",
"MX X'.N.R.L.X s x e.aXpX~.$XwXM.> , h E C x e.qX Xa.N.{.&.; , p >.C 9 7.NXnX.XeX4X*.; - >.<.a 0 e.,X,X$X$X9X' 0 * ` GXd.p.B.E.S ",
"xX'.N.M.B.I.* E #.w 6.8X8X7Xn.@ ; N Y <.2.s 1 6.{.'.p.K = ; j ,.2.=.9 c d.8X#XpXg.> , U >.#.) r 7 z.:X2Xa.] - l i *.NXd.C.m.E.) ",
"xX.Xd.t.B.b.* <.E Z z.0X0XuXx.@ e ` ` @.<.I M m.{.{.M.B = i <.2.#.1.V n a.8XwXnX! = u <.#.%.6.] r %.E.z.F.e 6 l =.9.BXd.N.m.T.` ",
"aX.XN.M.B.b.* E 6.{.zXuXS.4XqXM.T S ] ) W k.>X%Xz.9.9.9.T S @.Q =.%.r.>X7X|.{.5X>X5.H -.1.%.H ] G.<X8.E.t.E.` =.T *.zXi.C.C.R.V ",
"wX'.N.M.R.I.O C OX8X|.J 9  .8XcXY.m b S Z tXZX+.C < N L.b.` V ` %.%.<XGX5XL c 0.%X[.} H -.Q 8.uX#Xu.L < ' A.'.w.0 H wX| 0.m.D.r ",
"VXo.d.e.R.0.% V.XX2Xc.: . u C.sXjXe.h C +XbX].k.5 X ; 6.|.S.' m v +X9X8XV.u o $ ' yXwX{ B 9.'.$X|.;.@ o , B.oX=XK B rXM.| u.0.C ",
"MXS.>XD.T.;.< <XNX6.8 t p > B C.cXGX0.M.MXpXF.* 3 u i B *.M.0.B N.qXBXS.= X j g i B.yX,Xz.M.{.XXr.o 6 U u < 0XFX5Xr.tXB.e.7.;.p ",
"kXG.G.D.l.%.D b.E.0 O d 2.Y u C !.[.cX.X8X1X* @ d #.#.m m &.l.;. XN.' i @ y 2.r t q | }.{.:X,Xu.@ u a Y L.< v SX6X:.b.l.6.6.1.k ",
"9Xf.] y.*.' 6.' - 6 N %.l.3.Y : c _.&X*X3X1 O g _ @.Y U M C -.x.^.e.O . l ~ A e ,.7 n !.].,Xm.& # R =.B.8.8.B N o.n r.&.F F 1.d ",
"UXvX#X9X9XkXZX9X6 U ;.;.-.=.Y a C.eX&XcX3X! s ( _ @.=.2.1.g.z.D.,X0X) 6 k R S F k N p.oX,XuX:Xc j 2.1.v.5.m.&.` LXcXBX,X].oXuX%.",
"vX*X`.XX~._.cX$XT.%.C =.%.N ` E.FX,X|.e.,XDX6.D ) :.;.8.8.z.6.H { M.F.1.s U c.e r F.nX|.8.b.uXBX-.g.%.V R.] s.UXKX9X'.| ~.OXwX9 ",
"vXXX~.f.7.a.).].8X7.B A @.&.{.ZXaXR., s t.9XFXq.C S F ] } { F c c v | m.M 4 T i eXUXNX` 7 6 8.mXnXF *.;.*.y.FXLXXXu.&.J w.!.5Xe ",
"FX Xp.6.t.F.p.d.~.oXv.f A >XZXKX`.q $ . 8 `.KXIXj.S ] [.9X.XV.1XE.|.).8X/.= s gXbXUX.X- : t x OXZXxX*.D 4.HXbXQ.s.9.3.j.0.J B.7 ",
"PX_.u.6.6.t.7.p.M..X9Xi.u.dXNX#Xo # y p 2 i M.SXu.u.'.0X2Xa.u.N.s.} e.{.M.F ' :XzXt.8 ; a W U u ,XkXA.O.UXcX%XOXz.;.%.9.;.g.c.q ",
"FX'.p.g.1.l.;.r.m.|.wXd.L 0.{ c ; ; t u , = c { { 7.d.N.p.7.7.u.e.} 7.M.N.0.' ' ] c < 1 Z T N w v v n +XPXeX!.^.z.;.&.l.g.v.v.w ",
"BXM.l.1.<.1.%.-.8.F.4XN.c C.C.p.M.z.z.b.v.z.p.N.p.S.{.p.7.p.p.p.*.6.6.0.p.M.6.F p.p.V.5XuXuX5X4XiXC.p.UXmX8X^./.*.` S ;.-.;.l.q ",
"xXp.t.g.-.1.&.9.z.:X|.F.c R.:X4X!.u.q.6.t.p.M.^.M.N.M.e.6.5.6.7.8.z.v.6.6.M.F.S.u.a.]. X2X[..X.X,X{.f.PX_. XN.p.*.` H ;.&.;.g.q ",
"pXo.| 5.J &.J { J 7.f.s.c M.e.X.^.p.q.6.6.6.e.p.V.v.z.M.z.5.9.M.-.&.Q H ' 6.M.G.p.p.d.^.).i.f.i.p.A.i.ZXpXXXe.6.%.S S %.S T =.< ",
"VX~.u.8.&.8.J 5.*.' X.e.v T.M.s.0.0.6.6.&.&.*.5.&.V V -.&.H H g.g.G m H 8.9.;.6.0.0.p.N.'.d.p.u.s.a...VXmXo.b ] %.@.T =.A T <.0 ",
"NXN.h.1.2.1.=.-.L.-.6.%.m k.l.*.-.-.;.-.:.;.-.-.8.-.;.l.l.l.z.I.r.&.%.;.z.l.-.Q 1.g.z.D.F.B.C.C.B.M.u.BX2Xm.;.P.=.T Y E U E 2.s ",
"l.8 ; : 3 y : : 2 % q 1 2 I W i h p u 6 6 0 i 1 q w w q q m N m 8 x B N w q i 0 u 0 i N N m M I i Q G V.9 m > o ; * * , O * s X "
};
