/* XPM */
static char *eb98c11b09c94cd5d5a3b54869a006edgvmi4EQVHUvK6f0t[] = {
/* columns rows colors chars-per-pixel */
"64 64 138 2 ",
"   c #060606",
".  c #0B0C07",
"X  c #0E0E0D",
"o  c #130E0B",
"O  c #0F110B",
"+  c #13120E",
"@  c #151512",
"#  c #1C1614",
"$  c #171813",
"%  c #1B1915",
"&  c #1D1E1A",
"*  c #221E1B",
"=  c #1F201B",
"-  c #23211E",
";  c #2A251C",
":  c #2E2A1F",
">  c #252422",
",  c #292724",
"<  c #272924",
"1  c #2A2826",
"2  c #262628",
"3  c #2D2C2A",
"4  c #312C24",
"5  c #312F2C",
"6  c #343026",
"7  c #32312E",
"8  c #39362D",
"9  c #3D392E",
"0  c #2F2F31",
"q  c #312F30",
"w  c #2F3032",
"e  c #343432",
"r  c #393633",
"t  c #373832",
"y  c #3B3A36",
"u  c #373739",
"i  c #3D3D3A",
"p  c #413E35",
"a  c #413E3A",
"s  c #3F403C",
"d  c #43423E",
"f  c #3F3F41",
"g  c #3F4140",
"h  c #454541",
"j  c #494642",
"k  c #474843",
"l  c #4A4A45",
"z  c #4D4D49",
"x  c #524E4B",
"c  c #4F504B",
"v  c #53514D",
"b  c #5A574E",
"n  c #5B584F",
"m  c #575350",
"M  c #5A5451",
"N  c #5D5A54",
"B  c #5B5B5B",
"V  c #5D5D5D",
"C  c #615D54",
"Z  c #615E55",
"A  c #615C56",
"S  c #625D57",
"D  c #615C56",
"F  c #625D59",
"G  c #615E59",
"H  c #625F58",
"J  c #635D5A",
"K  c #646057",
"L  c #646158",
"P  c #66615E",
"I  c #65615D",
"U  c #69655A",
"Y  c #6A665B",
"T  c #69635C",
"R  c #6D695E",
"E  c #6E6A5F",
"W  c #6E6A5F",
"Q  c #606060",
"!  c gray38",
"~  c #686360",
"^  c #6A6562",
"/  c #6A6461",
"(  c #6D6A64",
")  c #6A6A6A",
"_  c gray42",
"`  c #6D6C6A",
"'  c #6E6D6B",
"]  c #6C6C6C",
"[  c #6F6F6F",
"{  c #6C6C6B",
"}  c #716B64",
"|  c #716B69",
" . c #74706D",
".. c #75716E",
"X. c #75716E",
"o. c #6E6F71",
"O. c #6D6E70",
"+. c #6F7072",
"@. c #6F7072",
"#. c gray44",
"$. c #717171",
"%. c #727272",
"&. c #747474",
"*. c gray46",
"=. c #727272",
"-. c #797572",
";. c #7A7673",
":. c #7A7673",
">. c #7F7B78",
",. c gray50",
"<. c #817D7A",
"1. c #827E7B",
"2. c #85817E",
"3. c #818181",
"4. c gray51",
"5. c #818284",
"6. c #838486",
"7. c gray53",
"8. c #838484",
"9. c #8A8685",
"0. c #8B8786",
"q. c #8A8685",
"w. c #8C8887",
"e. c #888888",
"r. c #8A8889",
"t. c #88888A",
"y. c #8B898A",
"u. c gray54",
"i. c #8B8B8B",
"p. c gray55",
"a. c #8E8E8E",
"s. c #8D8C8D",
"d. c #929292",
"f. c #939393",
"g. c gray58",
"h. c #979797",
"j. c #949494",
"k. c #989898",
/* pixels */
"3 h i 2 3 u u e e u e 3 e a r ; i i i i r u i i i i i i i y y y 3 i e , 0 i u e w u u 3 8 y r > r i i i i y i d i i i y r y i i ",
"@ B d.g.e.4.7.d.6.t.t.t.0.<.N 8 1 3 7 e e 7 5 5 5 5 e e 7 3 3 1 & Q g.g.t.,.4.a.8.t.a.t.0.>.N 8 1 3 e t e 7 5 5 3 7 e 7 3 3 3 3 ",
"  k %.&.[ [ _ [ o._ [ '  .-.F 8 > , 3 7 t t 7 3 5 7 7 7 5 1 > > X l %.&.+._ _ +.+._ _ '  .-.F 8 > 1 3 e u e 3 , 3 7 e 7 3 1 , > ",
"& y i 7 y d y 7 i t t r a N A y , , 1 7 r y t 7 t t t 7 3 1 , > > t t 3 u i y e s e e t d F A r , , 3 e y y t 3 e t t e 3 1 , , ",
"$ s c h d h d d s i l l j N A 8 , > > 1 5 t t e u e 3 1 > > > > = d z d s d i d h i h l j F A 6 > > > 1 7 t t e e e 5 1 > > > 1 ",
". y v l h h d s h i z z p b A 4 1 > > > 1 3 e t t 7 1 > - > , 1 + y c l h h d d h i z z p n A 4 > > > > 1 5 t u 7 5 3 , > > , 1 ",
"& s k i s d i t l y d d 8 N E 8 1 1 , > > 1 5 t 7 3 1 > > > , 1 & y d i d k d i k y h d 8 n E 9 , , , , , 1 5 e 3 3 1 , > > , 3 ",
"+ i v k k z z z v d z z p L Y ; > > > > - > 1 3 , , > > > > > > $ s v l l k d h c d v z p A Y : > , , > - > , 3 > > , > > > > , ",
"O y l i i h h d y i i d d m I r , > > > > , 1 3 7 1 > > > 1 1 , @ y k y i h h d y i i d d m I r , > > > > , 1 3 5 1 > , , > , 1 ",
"$ d v l l z h i h l h j j N ^ r , > > > > 1 3 3 3 3 1 , > > , 1 & d v h l z h y h l h j j N ^ r > > > > , 1 3 3 5 3 1 1 > - > 3 ",
"+ t l d h l d i i h d i a N ~ 1 > > > , 1 3 3 7 3 7 e 3 , > > 1 $ y h d h l d i i h d i a N ~ 1 > > > , 1 3 3 5 7 7 7 3 > & > 5 ",
"$ y z d d h j l i k d a d I | 5 > , , 1 3 5 7 e 7 e t 7 3 , > > % i l a d h h l i k d a d I | 5 > > , 1 3 3 7 7 e e e 7 1 > > 3 ",
"@ a x j a y y d i h d i a N ^ 5 , 1 1 3 5 e e e t e 7 7 7 3 1 > % a x j a y y d i h d i a N ^ 5 > , 1 3 5 7 7 7 t 7 e t e 3 , , ",
"o y m v x j d z l z l l h M J 5 1 1 3 7 e t e e r e 7 7 t e 3 , + y v x x j d z l z l l h M J 5 > 1 3 7 e e 7 7 t 7 7 u r 7 1 1 ",
"* a v v M v x M c c z v j x A r 1 3 7 t t t t e e e e e t e e 7 - a x x M v x v c c z v j x A r , 1 3 e t e 7 5 t e e t e 5 5 t ",
"* 5 5 > , , > 1 < > > 7 > > r # 3 3 e t r u e e 5 e u t e 7 t y - 5 4 - , , > , < > > 7 > > r # 1 3 7 t t e 7 3 e e t t 5 3 e a ",
"t u t e e e u y e e t t t t e e 0 f u 3 u f i u e i u e r a y 5 e t u t 7 7 e r t e e e e e e e 0 f u 3 u f i u e i i q e a y , ",
"7 7 e t t t e 7 7 7 t t t 7 3 3 & Q g.k.t.4.4.a.6.i.a.a.0.<.N 8 3 5 e t t e 7 7 e e t t e 7 3 3 & Q g.k.t.4.4.a.8.a.d.t.0.<.A 5 ",
"3 3 3 e r u 7 1 3 7 e t e 3 1 > X l %.&.%._ _ %.=.[ [ '  .-.A 5 > , 3 e u t 7 3 7 e t t 7 3 , > X l %.&.%._ _ %.o.[ [ ( | -.F 5 ",
"1 , , 3 t r e 3 e e e 7 3 1 > > > u u 3 y d i u g t e t d F A 8 > > , 3 t u e 3 e e e 7 3 1 > > > u u 3 y d i u i t e 7 a F A 8 ",
"1 > > , 7 r u e u e 5 3 1 , , , - d z h d h d d d i h k j L J 8 , > > 1 5 t t e r e 5 1 , , , , - d z h d h d d h i k h d F A 4 ",
"3 , - > 1 7 t u e 7 3 , > > 1 1 + i v l k h d d d i z z d N L 6 1 > > > 1 3 e t r e 3 > > > , 1 + i v l k h d d h d z l i N A : ",
"1 , > > > 1 3 e 3 3 , > > > , 1 & y d i d k d i k y h d 8 N ( 9 , > > > > , 3 e 5 3 , > > > , 1 & y d i d k d i k y k d 8 N E 8 ",
"1 1 , > - > , 3 , > > > > > > , $ s v l l l d h v d v v p A Y ; > > > > - > 1 3 , , > > > > > , $ s v l l l d h z d v z y A Y ; ",
"3 , > - > 1 3 3 5 1 > > , 1 1 > $ i k y i h d d y i i d d M P r 1 , > > > 1 3 3 5 1 > > , 1 1 > @ y k y i h h d y s i h d m J 8 ",
"3 , > > , 1 3 3 5 3 1 , > > , 1 & h v h l z d y h l h j j A ^ r , , > > , 1 3 5 5 3 1 , > > , 1 & d v h l z h y h l h l j N ^ 8 ",
"1 , > > 1 3 5 5 7 e 5 1 > - , 3 $ y h s h l d i i h d a a A ~ 4 , , > , 1 3 5 7 7 e 7 1 > - , 3 $ y h s h l d i i k d a a N I , ",
"1 , , , 3 5 7 7 e e e 3 1 > , 1 & i l a d h h j i j d a d J | 5 > , , 1 3 5 7 e e t e 3 1 > , 1 % i l a d h h l i l d d d I ( 5 ",
"1 , 1 3 5 e e 7 t e e e e 5 1 > % a x h a y y a i h a a a A / 4 , , 1 3 5 7 e e t e e e e 5 1 > % a x j a y y d i h d a a N ~ 1 ",
"3 3 3 3 e t e 7 t e 7 e r t 3 > @ i v v x j d j l z l z j M J 5 , 1 3 5 e e e e t e 7 e r t 3 > + y v x x j d z l z l l j M F 5 ",
"3 3 3 7 t t e 7 t e e e e e e 7 - d x x v v x v x x z v j x A r 1 3 5 e t t e 7 e e e e e e e 7 - a x x M v x v c v z v z x N r ",
"3 3 5 e t t e 5 e t t 7 3 5 r i - 5 4 - > > - , 1 > > 5 > , r # 1 3 7 t t t e 5 e e t 7 5 5 r i - 5 1 - > , > , 1 > > 7 > > r # ",
"3 f i 3 e i i e u i i e r a y 4 t t e e e e e t t e e t e e e e e h i 3 u i i u u i i e r a y 4 e t u t 7 7 e r e e t t e e e t ",
"X V g.g.t.4.7.d.7.i.a.s.w.<.A r 3 5 e t e 7 7 e e e t t e 7 3 3 $ V d.g.a.4.7.g.7.i.a.s.w.<.A r 3 5 e t t e 7 7 5 e t t e 5 3 3 ",
"  l %.&.[ _ _ [ +._ _ '  .-.F 8 - 1 7 t t 7 5 5 7 e t t 7 3 , > X l %.&.[ _ _ [ +._ _ '  .-.F 8 > , 3 e u t 7 3 3 7 t t 7 3 1 , ",
"- i i 3 t i y 7 s e 7 t d F A r - > 1 5 e t e 5 e e e 7 3 1 > > , i y 3 u i y e s e 7 e d F A r > > , 3 t u e 3 7 e e 7 3 , , > ",
"$ s z d d h h h h i h l j F A 8 1 > - , 7 u t 7 r e 5 1 , , , , & d z d d h h k h i h l j F A 8 , > > 1 5 t t e t e 7 3 , > , 1 ",
". y v l h h d d h s z z a N A 4 3 > * > 3 e e 7 r e 3 > > > , 1 + y c l k h d h h s z z a N A 4 1 > > > 1 3 e t e 7 3 , > > 1 3 ",
"% i k i d d i 7 l y k d 8 N E 9 , > > > > 1 3 7 3 3 , > > > , 1 - i h i d d y t l y k d 8 N E 9 , > > > > , 3 e 3 3 , > - > , 3 ",
"O y v l k z k h c d v z p A Y : - > 1 > * * , 7 , , > > > > > , $ i z l l l k k c d v z p A Y : > > > > - > 1 3 , , , > > > , 1 ",
"+ y l i i h h d y i i d d m I r , > > > > , 1 3 3 1 > > 1 1 , > @ y k y i h h d y i i d d M P r , , > > > 1 3 3 5 1 > , , > , 1 ",
"$ d v l l z h i h l h j j N ^ r , > > > > 1 3 3 3 3 1 , > > , 1 & d v h l z h i h l h j j A ^ r , > > > , 1 3 3 5 3 1 1 > - > 3 ",
"+ r l d h l d i i h d i a N ~ 1 > > > , 1 3 3 7 7 7 7 1 > - > 3 $ y h s h l d i i h d a a A ~ 4 > > , , 1 3 5 7 7 7 7 3 > & > 5 ",
"$ y z d d h h l i k d a d I | 5 > , , 1 3 5 7 e e e e 5 1 , > , % i l a d h j l i j d a d J | 5 > , 1 1 3 5 7 e e e e 7 1 > > 3 ",
"$ i v h i y y d i h d i a N ^ 5 , , 1 3 5 e e e e e e e e 5 , > % a x h a y y d i h a a a A / 4 > , 1 3 5 e e e t 7 e t e 3 , , ",
". y m v z h d l l z l l h M J 5 , 1 3 7 e e e e t e 7 t r t 3 > + y v x x j d z l z l z j M J 5 , 1 3 7 e e e e t 7 7 u r 7 1 1 ",
"& i v v m v z m c c z v j x A r 1 3 7 t t t e e e e e t t t e 7 - a x x M v x v x x z v j x A r , 3 5 e t t e 5 e e e t t 7 7 t ",
"& 3 3 > 1 1 > 1 < > > 7 > > r # 3 3 e t r u e e e t t e 5 7 t i - 5 1 - > , > , 1 > > 5 > , r # 1 3 7 t u t e 5 e e t t 5 3 t a ",
"r r u t e e t u e e t t t t e e e f u 3 e i u e u i i e r a y 4 r t t t t t t t t e t t e e e 7 e h i 3 e f i u u i u 5 r h a > ",
"7 7 e t t t e 7 7 e e t e 7 3 3 $ V d.g.a.8.7.g.7.i.a.a.w.<.A r 3 7 t u e e e e 7 e t t t 7 3 1 $ V d.g.i.8.7.g.6.a.a.t.0.2.F 8 ",
"1 1 3 e r r e 3 5 7 e e 7 3 , > @ l %.&.%._ _ %.+._ _ '  .-.F 8 > 1 e r t e 7 7 7 e t t e 3 , > X l %.&.[ _ _ [ [ [ [ ` | :.J 8 ",
"1 , , 3 u r e 3 e e 7 7 3 1 , > 1 i y 3 u i y e s e 7 7 d F A r > > 3 7 t t e 7 e e e 7 3 1 > > 1 i y 3 u i y e i t u 7 i N A r ",
"3 , > 1 5 u t e r e 5 1 , , , 1 & s z d d h h h h i h l j F A 8 1 > > 1 e r u 7 r t 7 3 1 , , , & d z d d h h k s i z l d A J 8 ",
"3 1 > > 1 5 e t t 7 3 > > > 1 3 + y z l h h d d h s z z a N A 4 3 , - > 3 e e e u e 3 , > > , 1 + y c l k h d h d d v z p N H 4 ",
"3 1 > > > 1 3 7 3 3 , > > > 1 1 - i h i d d y t l y k d 8 N E 9 1 , > > > 1 3 e 3 3 1 > > > , 1 - i h i d d y t k i k d 8 A } 8 ",
", , > > > > 1 3 , , > > > > , , $ i v l z z k l c d v z p A Y : - , 1 , * * 1 e , , > > > > > > $ i z l l l k k v d c z p L R ; ",
"3 , > - > , 1 3 7 1 > * > > > > $ i l i s h d s y i i d d M I r > > - > > > , 1 5 3 , > - > > 1 $ i l i s h d s y i i h d M J r ",
"3 1 > > , 3 3 5 7 5 3 , > > , 1 & d v k l z d y d k d h d N ~ 8 , > > , , 1 3 3 7 3 1 , > > , 1 & d v k l z d y d j h j j A ~ 7 ",
"1 , > > , 3 3 3 3 7 7 3 > > > 1 $ y l d h z d i i h d i a N ~ 1 > > > , 1 3 3 5 5 3 3 1 , > > > $ y l d h z d i i h d a a A ~ 4 ",
"1 , > , 3 5 7 7 5 7 e 5 1 , , , & a z d d j h l i k d a d I | 5 > > , 1 3 3 7 7 7 5 3 3 1 1 , > & a z d d j h l i j d a d J | 5 ",
"3 3 3 3 e t t t t e 7 7 7 7 3 , % a x d y r r a y d i y i N I 1 , 1 3 3 7 e t t t t t e 7 3 3 1 % a x d y r r a y d i i a N P 4 ",
"1 1 3 3 e e e 7 e 5 3 3 7 7 3 , # a M v x j j z l z l l j M I 5 , , 1 3 3 7 7 7 7 7 7 7 5 3 3 1 # a M v x j j z l z l z j M J 5 ",
"3 3 3 7 t t e 5 e 7 7 5 7 7 5 3 > j v v M v x M v v z v z x F r 1 1 3 5 7 e 7 7 e e 7 7 7 5 5 5 > j v v M v x M v v z m z x A r ",
"r r y i i i i y i i i i y r i a * 1 > % * * * - - & & 1 * * 5 o t r y i i i i i i i i y y y i i * 1 > % * * * - - & & 1 * * 4 o "
};
